<svg id="svg" version="1.1" width="400" height="447.05882352941177" viewBox="0 0 400 447.05882352941177" xmlns="http://www.w3.org/2000/svg" xmlns:xlink="http://www.w3.org/1999/xlink" ><g id="svgg"><path id="path0" d="M30.978 303.879 C 31.423 306.823,33.568 309.597,35.400 309.597 C 35.620 309.597,35.260 309.263,34.600 308.856 C 32.845 307.771,32.150 306.839,31.429 304.600 C 31.031 303.363,30.859 303.088,30.978 303.879 M344.918 304.872 C 344.377 306.891,342.722 308.623,340.545 309.450 L 339.000 310.037 340.367 309.815 C 342.958 309.395,346.175 305.526,345.534 303.601 C 345.450 303.349,345.173 303.921,344.918 304.872 M153.200 347.107 C 153.200 347.904,155.389 350.492,157.003 351.602 L 158.800 352.838 158.800 349.819 L 158.800 346.800 156.000 346.800 C 154.460 346.800,153.200 346.938,153.200 347.107 M160.966 359.448 C 161.877 363.216,162.193 363.898,163.747 365.453 C 165.302 367.007,165.984 367.323,169.752 368.234 C 171.791 368.727,170.758 367.623,168.212 366.588 C 165.217 365.371,163.829 363.983,162.612 360.988 C 161.577 358.442,160.473 357.409,160.966 359.448 " stroke="none" fill="#000000" fill-rule="evenodd"></path><path id="path1" d="M346.998 140.000 C 346.998 217.110,347.044 248.655,347.100 210.100 C 347.156 171.545,347.156 108.455,347.100 69.900 C 347.044 31.345,346.998 62.890,346.998 140.000 M168.600 50.630 C 165.991 52.012,164.800 53.134,164.800 54.211 C 164.800 57.505,161.426 67.051,159.778 68.418 C 158.230 69.703,157.203 73.350,154.771 86.200 C 152.370 98.884,151.120 102.804,148.010 107.400 C 146.307 109.916,144.204 117.943,143.189 125.800 C 141.767 136.811,139.224 144.655,135.604 149.200 C 134.443 150.657,132.941 156.094,132.206 161.493 C 129.953 178.060,128.389 183.497,124.500 188.283 C 122.931 190.213,122.327 191.972,121.026 198.400 C 119.345 206.703,119.282 205.730,121.622 207.579 L 123.672 209.200 135.353 209.200 L 147.033 209.200 148.673 207.500 C 150.102 206.018,150.348 205.492,150.585 203.400 C 150.734 202.080,151.213 199.560,151.648 197.800 C 152.083 196.040,152.709 193.160,153.040 191.400 C 153.995 186.320,155.446 182.023,157.228 179.000 C 158.135 177.460,159.621 174.701,160.528 172.868 C 162.770 168.340,164.268 166.707,167.759 164.981 L 170.675 163.540 183.637 163.695 C 203.079 163.927,206.607 164.815,210.424 170.435 C 212.557 173.576,213.795 176.745,214.600 181.127 C 216.180 189.721,217.242 193.314,218.996 196.000 C 220.499 198.303,221.881 201.372,223.029 204.957 C 223.816 207.413,228.515 209.172,234.329 209.187 C 243.615 209.211,252.807 208.122,254.117 206.841 L 255.234 205.750 254.177 202.375 C 253.596 200.519,252.777 198.627,252.356 198.170 C 250.881 196.567,248.779 192.655,247.989 190.041 C 246.779 186.034,244.000 172.728,244.000 170.940 C 244.000 168.976,241.350 161.340,240.128 159.780 C 238.673 157.925,237.493 154.859,236.208 149.600 C 235.697 147.510,234.912 144.415,234.462 142.723 C 234.012 141.030,233.450 138.240,233.212 136.523 C 232.449 131.001,229.767 120.894,228.691 119.483 C 225.665 115.516,224.252 111.210,221.815 98.537 C 219.053 84.169,218.691 82.939,216.221 79.496 C 214.423 76.991,213.309 73.970,212.203 68.600 C 211.704 66.180,210.935 63.030,210.493 61.600 C 210.051 60.170,209.467 57.620,209.195 55.933 C 208.757 53.217,208.528 52.697,207.196 51.396 L 205.691 49.926 188.145 49.748 L 170.600 49.570 168.600 50.630 M184.344 83.177 C 185.204 84.264,187.118 87.444,188.599 90.243 C 190.080 93.042,192.100 96.697,193.088 98.366 C 196.739 104.534,199.182 111.360,200.809 119.937 C 201.211 122.062,202.021 126.313,202.609 129.384 C 204.095 137.157,203.129 139.807,197.864 142.398 L 195.279 143.671 186.939 143.503 C 176.005 143.283,170.940 141.555,167.082 136.728 L 165.905 135.256 166.781 132.328 C 167.263 130.718,168.461 127.744,169.444 125.720 C 171.362 121.771,172.993 114.552,176.021 96.615 C 177.371 88.617,178.070 86.596,180.765 82.900 C 182.322 80.765,182.445 80.775,184.344 83.177 M31.666 301.295 C 32.725 306.011,34.297 307.651,39.400 309.370 C 43.010 310.585,46.160 311.264,43.440 310.240 C 42.582 309.917,41.749 309.441,41.589 309.181 C 41.428 308.922,40.404 308.408,39.312 308.038 C 36.375 307.044,34.972 305.735,33.376 302.500 C 31.766 299.239,31.098 298.768,31.666 301.295 M343.762 301.100 C 342.219 304.974,340.639 306.740,337.732 307.842 C 336.669 308.244,335.204 308.976,334.475 309.466 C 333.746 309.957,332.396 310.455,331.475 310.574 C 328.114 311.006,327.800 311.091,329.400 311.136 C 332.090 311.212,339.401 308.899,341.548 307.294 C 342.925 306.264,344.516 303.270,344.945 300.900 C 345.269 299.108,344.503 299.238,343.762 301.100 M45.900 311.082 C 46.395 311.178,47.205 311.178,47.700 311.082 C 48.195 310.987,47.790 310.909,46.800 310.909 C 45.810 310.909,45.405 310.987,45.900 311.082 M115.300 311.491 C 116.125 311.578,117.475 311.578,118.300 311.491 C 119.125 311.405,118.450 311.334,116.800 311.334 C 115.150 311.334,114.475 311.405,115.300 311.491 M262.800 312.354 C 262.800 316.868,259.947 319.841,254.000 321.523 L 252.600 321.918 254.027 321.959 C 258.297 322.081,261.968 319.617,262.728 316.119 C 263.479 312.666,263.588 311.600,263.190 311.600 C 262.976 311.600,262.800 311.939,262.800 312.354 M123.693 318.400 C 123.693 319.170,123.775 319.485,123.876 319.100 C 123.976 318.715,123.976 318.085,123.876 317.700 C 123.775 317.315,123.693 317.630,123.693 318.400 M124.012 321.071 C 123.996 321.681,125.119 322.804,125.729 322.788 C 125.988 322.781,125.891 322.595,125.513 322.375 C 125.135 322.155,124.645 321.665,124.425 321.287 C 124.205 320.909,124.019 320.812,124.012 321.071 M251.982 327.500 C 251.940 331.165,250.547 333.034,247.243 333.862 C 245.560 334.283,245.512 334.327,246.692 334.362 C 248.625 334.419,251.019 333.315,251.567 332.113 C 252.100 330.944,252.658 326.000,252.258 326.000 C 252.116 326.000,251.992 326.675,251.982 327.500 M241.067 334.667 C 240.920 334.813,240.803 335.128,240.806 335.367 C 240.810 335.644,240.920 335.630,241.113 335.328 C 241.278 335.068,242.220 334.784,243.207 334.697 L 245.000 334.540 243.167 334.470 C 242.158 334.431,241.213 334.520,241.067 334.667 M240.259 342.719 C 239.974 344.504,238.985 345.549,237.116 346.040 C 235.826 346.379,235.831 346.383,237.350 346.210 C 239.583 345.957,241.912 342.578,240.693 341.360 C 240.590 341.257,240.395 341.869,240.259 342.719 M230.307 346.690 C 231.026 346.779,232.106 346.777,232.707 346.686 C 233.308 346.595,232.720 346.522,231.400 346.524 C 230.080 346.526,229.588 346.601,230.307 346.690 M227.714 357.100 C 227.144 357.679,227.020 358.000,227.365 358.000 C 227.990 358.000,228.939 356.972,228.738 356.513 C 228.662 356.341,228.201 356.605,227.714 357.100 M217.301 365.000 C 217.305 365.880,217.387 366.193,217.483 365.695 C 217.579 365.198,217.575 364.478,217.475 364.095 C 217.375 363.713,217.296 364.120,217.301 365.000 M216.652 368.610 C 216.523 368.945,216.009 369.383,215.509 369.584 C 214.865 369.843,214.795 369.957,215.271 369.975 C 215.985 370.002,217.200 368.992,217.200 368.371 C 217.200 367.804,216.913 367.929,216.652 368.610 M175.505 370.283 C 176.002 370.379,176.722 370.375,177.105 370.275 C 177.487 370.175,177.080 370.096,176.200 370.101 C 175.320 370.105,175.007 370.187,175.505 370.283 M209.900 370.282 C 210.395 370.378,211.205 370.378,211.700 370.282 C 212.195 370.187,211.790 370.109,210.800 370.109 C 209.810 370.109,209.405 370.187,209.900 370.282 " stroke="none" fill="#ffffff" fill-rule="evenodd"></path><path id="path2" d="M346.961 286.000 C 346.961 289.410,347.022 290.805,347.097 289.100 C 347.172 287.395,347.172 284.605,347.097 282.900 C 347.022 281.195,346.961 282.590,346.961 286.000 M29.600 298.770 C 29.600 298.953,29.870 299.326,30.200 299.600 C 30.530 299.874,30.800 300.583,30.800 301.176 C 30.800 307.323,34.523 310.102,44.000 311.027 L 45.400 311.163 44.000 310.802 C 35.441 308.597,31.600 305.539,31.600 300.931 C 31.600 300.579,31.150 299.875,30.600 299.365 C 30.050 298.855,29.600 298.588,29.600 298.770 M345.675 299.616 C 345.194 300.064,344.798 300.829,344.796 301.316 C 344.777 305.610,341.583 308.097,332.600 310.811 C 331.407 311.172,331.408 311.173,332.800 311.016 C 341.355 310.055,344.366 308.211,345.238 303.400 C 345.477 302.080,345.917 300.505,346.217 299.900 C 346.870 298.584,346.814 298.555,345.675 299.616 M65.730 311.500 C 74.711 311.560,89.291 311.560,98.130 311.500 C 106.968 311.440,99.620 311.391,81.800 311.391 C 63.980 311.391,56.748 311.440,65.730 311.500 M279.900 311.500 C 288.535 311.560,302.665 311.560,311.300 311.500 C 319.935 311.440,312.870 311.390,295.600 311.390 C 278.330 311.390,271.265 311.440,279.900 311.500 M263.506 312.400 C 263.375 312.950,263.060 314.436,262.805 315.703 C 262.030 319.555,258.660 322.000,254.127 322.000 C 253.397 322.000,252.800 322.182,252.800 322.403 C 252.800 323.806,261.378 321.584,262.390 319.920 C 263.215 318.564,264.160 313.822,263.904 312.328 L 263.744 311.400 263.506 312.400 M124.000 321.957 C 124.000 322.552,125.521 323.282,126.321 323.072 C 126.823 322.939,126.773 322.881,126.129 322.846 C 125.649 322.821,124.974 322.517,124.629 322.171 C 124.283 321.826,124.000 321.729,124.000 321.957 M252.528 325.600 C 252.528 327.030,252.601 327.615,252.689 326.900 C 252.778 326.185,252.778 325.015,252.689 324.300 C 252.601 323.585,252.528 324.170,252.528 325.600 M135.324 327.000 C 135.326 328.320,135.401 328.812,135.490 328.093 C 135.579 327.374,135.577 326.294,135.486 325.693 C 135.395 325.092,135.322 325.680,135.324 327.000 M252.032 330.281 C 251.943 332.765,250.550 333.870,246.800 334.432 C 244.654 334.754,244.668 334.758,247.355 334.591 C 251.221 334.351,253.268 332.407,252.272 329.921 C 252.157 329.635,252.049 329.797,252.032 330.281 M142.307 335.090 C 143.026 335.179,144.106 335.177,144.707 335.086 C 145.308 334.995,144.720 334.922,143.400 334.924 C 142.080 334.926,141.588 335.001,142.307 335.090 M240.928 338.000 C 240.928 339.430,241.001 340.015,241.089 339.300 C 241.178 338.585,241.178 337.415,241.089 336.700 C 241.001 335.985,240.928 336.570,240.928 338.000 M240.400 343.938 C 240.400 344.699,239.455 345.728,238.400 346.116 C 237.925 346.291,237.946 346.343,238.500 346.368 C 239.431 346.410,240.800 345.001,240.800 344.000 C 240.800 343.560,240.710 343.200,240.600 343.200 C 240.490 343.200,240.400 343.532,240.400 343.938 M234.300 346.682 C 234.795 346.778,235.605 346.778,236.100 346.682 C 236.595 346.587,236.190 346.509,235.200 346.509 C 234.210 346.509,233.805 346.587,234.300 346.682 M162.260 360.193 C 163.480 363.776,165.424 365.720,169.007 366.940 L 170.800 367.551 170.778 366.076 C 170.759 364.764,170.548 364.467,168.878 363.400 C 167.845 362.740,166.460 361.355,165.800 360.322 C 164.733 358.652,164.436 358.441,163.124 358.422 L 161.649 358.400 162.260 360.193 M212.900 370.276 C 213.285 370.376,213.915 370.376,214.300 370.276 C 214.685 370.175,214.370 370.093,213.600 370.093 C 212.830 370.093,212.515 370.175,212.900 370.276 " stroke="none" fill="#ff0000" fill-rule="evenodd"></path><path id="path3" d="M29.640 148.500 C 29.681 302.377,29.644 298.699,31.160 299.455 C 31.685 299.717,32.677 301.105,33.448 302.658 C 34.966 305.713,36.416 307.057,39.214 308.005 C 40.251 308.356,41.399 308.942,41.764 309.307 C 43.366 310.909,44.070 310.940,84.400 311.202 C 105.850 311.341,123.418 311.488,123.440 311.527 C 123.462 311.567,123.601 313.600,123.750 316.045 C 124.149 322.622,124.293 322.762,130.999 323.092 L 135.521 323.315 135.660 328.243 C 135.844 334.723,135.677 334.556,142.161 334.740 L 147.093 334.879 147.286 339.552 C 147.569 346.418,147.560 346.410,154.300 346.704 L 158.800 346.901 158.829 349.950 C 158.897 357.056,159.515 358.383,162.776 358.422 C 164.503 358.442,164.664 358.543,165.800 360.322 C 166.460 361.355,167.845 362.740,168.878 363.400 C 170.657 364.536,170.758 364.697,170.778 366.424 C 170.824 370.241,171.426 370.347,193.200 370.355 C 218.067 370.365,216.969 370.687,217.413 363.253 L 217.696 358.509 221.978 358.306 C 228.485 357.997,228.815 357.658,229.110 350.971 L 229.307 346.500 233.421 346.317 C 239.702 346.038,240.307 345.400,240.743 338.600 L 241.000 334.600 242.600 334.501 C 249.889 334.048,251.275 332.982,252.015 327.260 C 252.787 321.279,252.585 321.712,254.826 321.232 C 259.606 320.207,262.800 316.682,262.800 312.433 C 262.800 311.229,263.264 311.212,295.800 311.193 C 330.953 311.173,331.781 311.124,335.600 308.829 C 335.930 308.631,337.236 307.990,338.502 307.404 C 340.982 306.257,342.662 304.296,343.581 301.475 C 343.900 300.498,344.426 299.818,345.046 299.582 C 346.848 298.897,346.800 303.034,346.800 148.574 L 346.800 0.000 188.200 0.000 L 29.600 0.000 29.640 148.500 M209.200 45.147 C 212.352 46.804,213.139 47.879,214.840 52.854 C 216.298 57.117,217.384 58.910,219.377 60.341 C 223.388 63.221,223.640 64.140,226.199 85.200 C 226.962 91.479,228.770 96.874,230.823 99.000 C 234.138 102.433,236.032 108.115,237.220 118.200 C 239.092 134.081,239.972 137.374,243.099 140.185 C 245.824 142.635,247.363 145.868,247.965 150.400 C 248.810 156.766,249.554 163.393,249.808 166.800 C 250.036 169.869,251.319 174.750,252.480 176.968 C 252.720 177.425,253.793 178.648,254.866 179.685 C 259.263 183.936,263.214 202.831,260.833 208.222 C 258.220 214.136,256.676 214.600,239.600 214.600 C 212.779 214.600,210.488 212.521,208.963 186.800 C 208.517 179.265,207.363 177.652,201.686 176.626 C 199.644 176.257,197.236 175.695,196.336 175.377 C 195.048 174.923,192.125 174.800,182.617 174.800 L 170.535 174.800 169.315 176.700 C 166.886 180.483,166.138 182.484,165.664 186.461 C 164.794 193.763,164.600 194.258,161.372 197.432 C 158.135 200.613,157.586 201.517,156.000 206.268 C 153.312 214.317,152.132 214.802,135.250 214.795 C 118.524 214.789,115.703 213.951,113.177 208.241 C 112.205 206.044,112.243 205.475,113.790 199.000 C 114.316 196.800,115.036 192.660,115.390 189.800 C 116.642 179.697,118.815 173.097,121.982 169.773 C 124.307 167.334,125.866 162.353,126.607 155.000 C 128.296 138.240,129.754 132.996,133.835 128.999 C 136.342 126.543,137.007 123.903,138.818 109.200 C 140.332 96.918,142.099 91.156,145.443 87.600 C 148.158 84.713,149.345 80.448,151.008 67.600 C 153.211 50.578,154.388 48.333,162.527 45.624 C 166.966 44.147,168.248 44.072,188.000 44.137 L 207.400 44.200 209.200 45.147 M181.038 107.300 C 179.828 110.392,179.488 112.539,178.806 121.400 C 178.569 124.480,178.214 128.797,178.017 130.994 C 177.608 135.547,177.628 135.595,180.462 137.031 C 182.229 137.927,182.822 138.000,188.298 138.000 L 194.223 138.000 195.690 136.576 C 196.496 135.792,197.090 134.937,197.010 134.676 C 194.795 127.490,194.216 126.106,192.792 124.600 C 190.831 122.525,189.166 119.121,187.832 114.456 C 186.741 110.642,186.526 110.188,184.067 106.500 C 182.308 103.861,182.392 103.839,181.038 107.300 " stroke="none" fill="#f98c00" fill-rule="evenodd"></path><path id="path4" d="M166.827 44.428 C 161.341 45.527,156.247 48.388,154.254 51.490 C 152.953 53.516,152.610 55.218,151.008 67.600 C 149.345 80.448,148.158 84.713,145.443 87.600 C 142.099 91.156,140.332 96.918,138.818 109.200 C 137.007 123.903,136.342 126.543,133.835 128.999 C 129.754 132.996,128.296 138.240,126.607 155.000 C 125.866 162.353,124.307 167.334,121.982 169.773 C 118.815 173.097,116.642 179.697,115.390 189.800 C 115.036 192.660,114.316 196.800,113.790 199.000 C 112.243 205.475,112.205 206.044,113.177 208.241 C 115.703 213.951,118.524 214.789,135.250 214.795 C 152.132 214.802,153.312 214.317,156.000 206.268 C 157.586 201.517,158.135 200.613,161.372 197.432 C 164.600 194.258,164.794 193.763,165.664 186.461 C 166.138 182.484,166.886 180.483,169.315 176.700 L 170.535 174.800 182.617 174.800 C 192.125 174.800,195.048 174.923,196.336 175.377 C 197.236 175.695,199.644 176.257,201.686 176.626 C 207.363 177.652,208.517 179.265,208.963 186.800 C 210.488 212.521,212.779 214.600,239.600 214.600 C 256.676 214.600,258.220 214.136,260.833 208.222 C 263.214 202.831,259.263 183.936,254.866 179.685 C 253.793 178.648,252.720 177.425,252.480 176.968 C 251.319 174.750,250.036 169.869,249.808 166.800 C 249.554 163.393,248.810 156.766,247.965 150.400 C 247.363 145.868,245.824 142.635,243.099 140.185 C 239.972 137.374,239.092 134.081,237.220 118.200 C 236.032 108.115,234.138 102.433,230.823 99.000 C 228.770 96.874,226.962 91.479,226.199 85.200 C 223.640 64.140,223.388 63.221,219.377 60.341 C 217.384 58.910,216.298 57.117,214.840 52.854 C 213.139 47.879,212.352 46.804,209.200 45.147 L 207.400 44.200 188.000 44.137 C 177.330 44.102,167.802 44.233,166.827 44.428 M207.196 51.396 C 208.528 52.697,208.757 53.217,209.195 55.933 C 209.467 57.620,210.051 60.170,210.493 61.600 C 210.935 63.030,211.704 66.180,212.203 68.600 C 213.309 73.970,214.423 76.991,216.221 79.496 C 218.691 82.939,219.053 84.169,221.815 98.537 C 224.252 111.210,225.665 115.516,228.691 119.483 C 229.767 120.894,232.449 131.001,233.212 136.523 C 233.450 138.240,234.012 141.030,234.462 142.723 C 234.912 144.415,235.697 147.510,236.208 149.600 C 237.493 154.859,238.673 157.925,240.128 159.780 C 241.350 161.340,244.000 168.976,244.000 170.940 C 244.000 172.728,246.779 186.034,247.989 190.041 C 248.779 192.655,250.881 196.567,252.356 198.170 C 252.777 198.627,253.596 200.519,254.177 202.375 L 255.234 205.750 254.117 206.841 C 252.807 208.122,243.615 209.211,234.329 209.187 C 228.515 209.172,223.816 207.413,223.029 204.957 C 221.881 201.372,220.499 198.303,218.996 196.000 C 217.242 193.314,216.180 189.721,214.600 181.127 C 213.795 176.745,212.557 173.576,210.424 170.435 C 206.607 164.815,203.079 163.927,183.637 163.695 L 170.675 163.540 167.759 164.981 C 164.268 166.707,162.770 168.340,160.528 172.868 C 159.621 174.701,158.135 177.460,157.228 179.000 C 155.446 182.023,153.995 186.320,153.040 191.400 C 152.709 193.160,152.083 196.040,151.648 197.800 C 151.213 199.560,150.734 202.080,150.585 203.400 C 150.348 205.492,150.102 206.018,148.673 207.500 L 147.033 209.200 135.353 209.200 L 123.672 209.200 121.622 207.579 C 119.282 205.730,119.345 206.703,121.026 198.400 C 122.327 191.972,122.931 190.213,124.500 188.283 C 128.389 183.497,129.953 178.060,132.206 161.493 C 132.941 156.094,134.443 150.657,135.604 149.200 C 139.224 144.655,141.767 136.811,143.189 125.800 C 144.204 117.943,146.307 109.916,148.010 107.400 C 151.120 102.804,152.370 98.884,154.771 86.200 C 157.203 73.350,158.230 69.703,159.778 68.418 C 161.426 67.051,164.800 57.505,164.800 54.211 C 164.800 53.134,165.991 52.012,168.600 50.630 L 170.600 49.570 188.145 49.748 L 205.691 49.926 207.196 51.396 M180.765 82.900 C 178.070 86.596,177.371 88.617,176.021 96.615 C 172.993 114.552,171.362 121.771,169.444 125.720 C 168.461 127.744,167.263 130.718,166.781 132.328 L 165.905 135.256 167.082 136.728 C 170.940 141.555,176.005 143.283,186.939 143.503 L 195.279 143.671 197.864 142.398 C 203.129 139.807,204.095 137.157,202.609 129.384 C 202.021 126.313,201.211 122.062,200.809 119.937 C 199.182 111.360,196.739 104.534,193.088 98.366 C 192.100 96.697,190.080 93.042,188.599 90.243 C 185.973 85.279,183.174 81.200,182.393 81.200 C 182.180 81.200,181.447 81.965,180.765 82.900 M184.067 106.500 C 186.526 110.188,186.741 110.642,187.832 114.456 C 189.166 119.121,190.831 122.525,192.792 124.600 C 194.216 126.106,194.795 127.490,197.010 134.676 C 197.090 134.937,196.496 135.792,195.690 136.576 L 194.223 138.000 188.298 138.000 C 182.822 138.000,182.229 137.927,180.462 137.031 C 177.628 135.595,177.608 135.547,178.017 130.994 C 178.214 128.797,178.569 124.480,178.806 121.400 C 179.488 112.539,179.828 110.392,181.038 107.300 C 182.392 103.839,182.308 103.861,184.067 106.500 " stroke="none" fill="#f5a94c" fill-rule="evenodd"></path></g></svg>