<?xml version="1.0" encoding="utf-8"?>
<!-- Generator: Adobe Illustrator 16.0.0, SVG Export Plug-In . SVG Version: 6.00 Build 0)  -->
<!DOCTYPE svg PUBLIC "-//W3C//DTD SVG 1.1//EN" "http://www.w3.org/Graphics/SVG/1.1/DTD/svg11.dtd">
<svg version="1.1" id="svg" xmlns="http://www.w3.org/2000/svg" xmlns:xlink="http://www.w3.org/1999/xlink" x="0px" y="0px"
	 width="315px" height="373.869px" viewBox="42.5 9.278 315 373.869" enable-background="new 42.5 9.278 315 373.869"
	 xml:space="preserve">
<g id="svgg">
	<path id="path0" fill="#FFFFFF" d="M201,93.451c-5.051,0.713-5.891,1.06-7.223,2.982c-1.448,2.09-3.936,3.671-7.463,4.744
		c-1.603,0.487-3.904,1.317-5.114,1.844s-3.488,1.336-5.063,1.797c-3.398,0.994-3.708,1.316-4.874,5.063
		c-0.493,1.584-1.52,3.744-2.282,4.8c-0.762,1.055-1.604,2.369-1.871,2.919c-1.128,2.328-2.545,4.105-4.302,5.394
		c-4.112,3.018-4.429,19.772-0.425,22.431c3.493,2.32,7.338,8.529,8.124,13.118c0.529,3.088,0.8,3.296,5.568,4.272
		c2.324,0.477,4.469,1.239,6.234,2.216c4.06,2.249,4.856,2.899,6.287,5.136c1.565,2.447,4.303,3.606,9.486,4.018
		c8.236,0.655,14.12,3.632,15.607,7.898c0.399,1.149,3.554,3.102,5.026,3.113c4.211,0.032,6.642,4.719,7.077,13.653
		c0.542,11.106-1.156,14.749-7.811,16.749c-2.256,0.678-2.789,1.029-3.852,2.537c-3.013,4.275-6.015,5.43-14.898,5.732
		c-12.7,0.432-19.455-1.151-23.676-5.548l-2.034-2.119l-2.565,0.083c-2.082,0.068-2.885,0.3-4.262,1.233
		c-0.933,0.633-2.555,1.495-3.604,1.917c-1.599,0.643-1.968,0.994-2.275,2.167c-1.952,7.462-1.353,9.02,3.95,10.273
		c4.009,0.946,8.672,3.312,10.944,5.553c1.943,1.916,4.547,2.259,18.689,2.463c15.575,0.225,16.991-0.006,20.44-3.295
		c2.656-2.533,5.241-3.83,9.561-4.795c1.649-0.369,4.17-1.182,5.6-1.809c1.43-0.625,3.77-1.436,5.2-1.8
		c3.348-0.853,3.286-0.789,4.606-4.846c0.625-1.92,1.709-4.222,2.443-5.183c0.727-0.952,1.768-2.614,2.316-3.695
		c0.894-1.764,4.261-5.267,5.062-5.267c1.485,0,2.31-14.303,1.06-18.442c-0.537-1.782-0.992-2.461-2.225-3.314
		c-3.059-2.119-5.686-6.874-6.686-12.091c-0.87-4.555-1.256-4.979-5.777-6.347c-3.33-1.007-5.031-2.361-6.23-4.957
		c-0.57-1.237-1.176-2.516-1.344-2.842c-0.195-0.381-1.723-0.84-4.265-1.283c-15.435-2.684-20.13-4.434-22.925-8.542
		c-0.993-1.461-4.418-3.315-8.837-4.782c-4.111-1.366-6.056-4.514-6.803-11.008c-1.336-11.625,0.75-16.888,7.204-18.173
		c2.547-0.507,2.735-0.639,3.94-2.775c2.57-4.554,6.846-6.059,16.246-5.719c10.392,0.376,16.974,2.36,20.055,6.046
		c1.188,1.422,1.818,1.804,3.645,2.213c2.99,0.669,3.078,0.527,3.857-6.316l0.652-5.732l-1.098-2.627
		c-0.604-1.445-1.367-2.774-1.697-2.953c-0.33-0.179-1.598-0.777-2.815-1.33c-1.218-0.552-2.961-1.643-3.874-2.424
		c-1.91-1.635-3.248-1.948-11.033-2.584C213.876,92.663,205.918,92.757,201,93.451"/>
	<path id="path1" fill="#0000FF" d="M50.48,17.28c-0.289,0.289-0.457,1.52-0.421,3.1L50.118,23l0.245-2.2
		c0.301-2.701,0.537-3.089,2.157-3.558l1.28-0.37l-1.42-0.036C51.599,16.816,50.744,17.016,50.48,17.28 M347.48,17.242
		c1.619,0.469,1.855,0.857,2.156,3.558l0.245,2.2l0.06-2.62c0.067-3.028-0.304-3.595-2.321-3.544l-1.42,0.036L347.48,17.242
		 M50.062,323.799c-0.074,3.56-0.036,3.586,5.221,3.642l4.517,0.048l-3.888-0.244c-4.608-0.289-5.171-0.67-5.545-3.748l-0.254-2.097
		L50.062,323.799 M349.672,323.318c-0.12,3.188-1.135,3.864-5.954,3.962l-3.918,0.081l3.2,0.144
		c6.544,0.295,7.209-0.104,6.897-4.131l-0.153-1.974L349.672,323.318 M272.134,330.4c0,1.649,0.071,2.325,0.157,1.5
		c0.087-0.825,0.087-2.175,0-3C272.205,328.075,272.134,328.75,272.134,330.4 M138.868,332.274c-0.086,5.137,0.25,6.145,2.022,6.072
		c0.887-0.037,1.029-0.11,0.439-0.225c-1.558-0.304-1.919-1.252-2.161-5.683l-0.232-4.239L138.868,332.274 M271.654,336.25
		c-0.062,0.957-0.672,1.569-1.854,1.86c-0.521,0.128-0.342,0.212,0.513,0.243c1.429,0.05,1.862-0.508,1.573-2.025
		C271.723,335.471,271.705,335.465,271.654,336.25 M145.7,338.691c0.825,0.087,2.175,0.087,3,0c0.825-0.086,0.15-0.157-1.5-0.157
		C145.55,338.534,144.875,338.605,145.7,338.691 M262.5,338.691c0.825,0.087,2.175,0.087,3,0c0.825-0.086,0.15-0.157-1.5-0.157
		S261.675,338.605,262.5,338.691 M260.8,343.681c-0.216,4.62-0.399,5.032-2.463,5.521L257,349.518l1.71,0.041
		c2.235,0.054,2.554-0.755,2.403-6.12L261,339.4L260.8,343.681 M150.059,346.02c-0.068,3.027,0.303,3.596,2.321,3.544l1.42-0.036
		l-1.28-0.369c-1.62-0.47-1.856-0.857-2.157-3.559l-0.245-2.2L150.059,346.02 M249.6,356.724c0,2.721-0.642,3.409-3.461,3.709
		l-2.339,0.249l2.472,0.059c3.219,0.077,3.729-0.412,3.729-3.57c0-1.303-0.09-2.371-0.2-2.371S249.6,355.667,249.6,356.724
		 M161.246,369.31c-0.059,2.45,0.553,2.714,6.08,2.622l4.074-0.068l-4.28-0.232c-4.712-0.254-5.094-0.442-5.534-2.711l-0.294-1.521
		L161.246,369.31 M238.471,368.624c-0.139,2.412-0.757,2.75-5.539,3.026l-4.332,0.251l4.682-0.051
		c5.33-0.057,5.635-0.208,5.414-2.696C238.588,367.945,238.518,367.78,238.471,368.624 M172.521,381
		c0.075,1.528,0.141,1.604,1.479,1.686c1.384,0.084,1.387,0.08,0.303-0.333c-0.71-0.271-1.232-0.864-1.479-1.685l-0.383-1.269
		L172.521,381 M227.113,380.661c-0.195,0.887-0.609,1.383-1.396,1.668l-1.118,0.408l1.313,0.031
		c1.452,0.035,1.821-0.475,1.612-2.234l-0.135-1.134L227.113,380.661 M188.7,383.1c6.215,0.062,16.385,0.062,22.6,0
		c6.216-0.062,1.13-0.113-11.3-0.113C187.57,382.987,182.485,383.038,188.7,383.1"/>
	<path id="path2" fill="#2F2FE5" d="M52.509,17.245c-0.71,0.205-1.52,0.774-1.8,1.264c-0.577,1.009-0.777,304.332-0.203,306.386
		c0.744,2.656-2.11,2.49,45.376,2.635l42.918,0.131l0.186,0.869c0.103,0.479,0.238,2.529,0.3,4.557
		c0.155,5.002,0.229,5.067,6.071,5.252l4.534,0.145l0.281,4.434c0.402,6.358,0.761,6.676,7.528,6.682l3.5,0.002l0.017,8.699
		c0.027,13.416-0.177,12.982,6.294,13.349c2.579,0.146,4.734,0.285,4.789,0.31c0.055,0.023,0.101,1.617,0.102,3.543
		c0.005,7.912-2.308,7.299,27.598,7.299c29.891,0,27.593,0.604,27.598-7.252c0.002-4.055-0.154-3.934,5.076-3.942
		c5.569-0.009,5.703-0.151,6.02-6.451l0.215-4.247l4.374-0.277c6.411-0.404,6.143-0.137,6.546-6.504l0.279-4.428l4.246-0.197
		c6.274-0.291,6.442-0.449,6.451-6.026c0.01-5.267-0.283-4.966,5.02-5.134c5.99-0.191,5.925-0.125,6.115-6.119l0.145-4.555
		l37.476-0.133c41.436-0.148,39.195,0,39.935-2.639c0.57-2.04,0.374-305.376-0.199-306.377c-0.277-0.486-1.177-1.07-2-1.298
		C345.344,16.678,54.386,16.703,52.509,17.245 M234.6,86.798c9.021,0.674,16.334,4.408,17.162,8.763
		c0.107,0.571,0.486,2.659,0.84,4.639c0.354,1.98,0.724,3.991,0.821,4.469c0.129,0.633-0.331,1.376-1.698,2.743
		c-2.154,2.154-3.062,3.957-4.879,9.683c-2.527,7.969-4.888,9.181-14.791,7.599c-18.195-2.907-34.476-2.051-38.552,2.026
		l-0.888,0.887l0.737,2.075c0.405,1.142,1.536,2.985,2.512,4.097c0.977,1.111,2.175,2.741,2.664,3.621
		c1.205,2.173,6.149,5.178,9.15,5.563c6.193,0.794,10.92,2.89,12.775,5.667c0.992,1.484,6.553,4.57,8.234,4.57
		c5.285,0,10.664,3.842,21.942,15.67c6.224,6.527,8.222,16.057,7.362,35.13c-0.619,13.778-1.616,17.077-5.936,19.658
		c-2.432,1.454-3.272,2.413-4.861,5.542c-1.918,3.783-3.324,5.102-7.68,7.202c-2.851,1.376-3.777,2.063-5.108,3.789
		c-4.115,5.333-11.708,6.614-39.129,6.603c-30.596-0.012-39.138-1.647-41.76-7.994c-0.537-1.299-0.544-17.684-0.009-21.456
		c1.009-7.117,5.201-11.565,9.809-10.41c4.687,1.174,7.161,1.466,24.375,2.871c12.313,1.005,24.976-0.711,29.042-3.936
		c0.69-0.548,0.283-5.665-0.715-8.962l-0.697-2.307l-6.961-3.683c-6.299-3.332-10.361-6.23-10.361-7.389
		c0-0.729-3.667-2.081-8.07-2.974c-8.751-1.776-12.506-3.664-14.338-7.208c-0.827-1.601-1.859-2.4-4.31-3.338
		c-5.063-1.937-6.969-3.543-8.698-7.327c-0.743-1.624-1.503-2.599-2.539-3.253c-5.267-3.325-6.596-7.416-7.088-21.828
		c-0.619-18.086,1.439-25.9,7.7-29.241c0.852-0.454,1.736-1.675,3.041-4.2c2.256-4.361,3.171-5.249,7.528-7.308
		c2.745-1.297,3.83-2.084,5.461-3.958c3.801-4.37,8.367-5.766,21.313-6.516C204.544,85.998,227.409,86.261,234.6,86.798"/>
	<path id="path3" fill="#FFFFFF" d="M198,86.377c-12.946,0.75-17.512,2.146-21.313,6.516c-1.631,1.874-2.716,2.661-5.461,3.958
		c-4.357,2.059-5.272,2.947-7.528,7.308c-1.305,2.525-2.189,3.746-3.041,4.2c-6.261,3.341-8.319,11.155-7.7,29.241
		c0.492,14.412,1.821,18.503,7.088,21.828c1.036,0.654,1.796,1.629,2.539,3.253c1.729,3.784,3.635,5.39,8.698,7.327
		c2.451,0.938,3.483,1.737,4.31,3.338c1.832,3.544,5.587,5.432,14.338,7.208c4.403,0.893,8.07,2.245,8.07,2.974
		c0,1.159,4.062,4.057,10.361,7.389l6.961,3.683l0.697,2.307c0.998,3.297,1.405,8.414,0.715,8.962
		c-4.065,3.225-16.729,4.941-29.042,3.936c-17.214-1.405-19.688-1.697-24.375-2.871c-4.608-1.155-8.8,3.293-9.809,10.41
		c-0.535,3.771-0.528,20.157,0.009,21.456c2.622,6.347,11.164,7.982,41.76,7.994c27.421,0.012,35.014-1.27,39.129-6.603
		c1.331-1.726,2.258-2.413,5.108-3.789c4.355-2.101,5.762-3.419,7.68-7.202c1.589-3.129,2.43-4.088,4.861-5.542
		c4.319-2.581,5.316-5.88,5.936-19.658c0.859-19.073-1.139-28.603-7.362-35.13c-11.278-11.828-16.657-15.67-21.942-15.67
		c-1.682,0-7.242-3.086-8.234-4.57c-1.855-2.777-6.582-4.873-12.775-5.667c-3.001-0.385-7.945-3.39-9.15-5.563
		c-0.489-0.88-1.687-2.51-2.664-3.621c-0.976-1.112-2.107-2.955-2.512-4.097l-0.737-2.075l0.888-0.887
		c4.076-4.077,20.356-4.933,38.552-2.026c9.903,1.582,12.264,0.37,14.791-7.599c1.817-5.726,2.725-7.529,4.879-9.683
		c1.367-1.367,1.827-2.11,1.698-2.743c-0.098-0.478-0.467-2.489-0.821-4.469c-0.354-1.98-0.732-4.068-0.84-4.639
		c-0.482-2.533-5.457-6.359-10.162-7.817C237.747,86.551,210.012,85.681,198,86.377 M220.868,90.41
		c19.821,1.325,20.833,1.794,23.554,10.937l1.176,3.947l-0.97,3.253c-0.534,1.789-1.188,4.333-1.455,5.653
		c-0.87,4.298-3.261,6.889-5.915,6.41c-3.998-0.721-17.186-3.951-18.916-4.633c-3.484-1.373-12.005-1.126-14.277,0.414
		c-0.955,0.647-3.851,2.003-6.435,3.014c-5.357,2.095-7.001,3.271-8.556,6.13l-1.1,2.02l0.771,3.723
		c1.916,9.263,4.228,11.609,16.175,16.413c2.596,1.043,5.475,2.409,6.4,3.033c2.685,1.815,10.199,5.166,13.68,6.1
		c4.15,1.115,7.369,2.837,9.334,4.997c0.867,0.952,2.541,2.356,3.721,3.12c3.334,2.158,6.897,6.069,8.338,9.152
		c0.692,1.481,1.887,3.444,2.654,4.363c6.098,7.299,6.689,34.249,0.862,39.273c-3.565,3.074-5.164,4.947-6.642,7.785
		c-2.045,3.923-3.115,4.918-7.101,6.595c-3.244,1.365-6.336,3.249-7.362,4.485c-5.951,7.172-49.889,8.515-65.475,2.003
		c-4.63-1.935-6.857-8.104-5.709-15.812c0.408-2.742,0.751-5.179,0.761-5.416c0.01-0.238,0.575-1.273,1.256-2.3l1.237-1.869
		l6.463,0.004c5.428,0.003,7.162,0.162,10.837,0.996c2.406,0.545,5.466,1.179,6.8,1.408c1.334,0.228,4.057,0.797,6.052,1.265
		c5.685,1.331,11.956,0.425,20.508-2.965c9.998-3.962,11.09-5.388,10.65-13.91c-0.412-8.011-0.781-8.517-9.985-13.721
		c-2.421-1.368-5.479-3.37-6.798-4.449c-3.072-2.514-5.189-3.459-11.667-5.21c-8.223-2.222-10.27-3.201-13.536-6.474
		c-2.299-2.304-3.328-3.013-5.748-3.957c-3.884-1.516-6.449-3.829-8.112-7.313c-0.84-1.761-2.143-3.529-3.851-5.229
		c-4.319-4.297-5.875-10.67-5.285-21.645c0.443-8.254,2.503-16.8,4.05-16.8c0.996,0,4.838-4.348,6.274-7.099
		c1.966-3.769,3.959-5.769,6.872-6.901c2.956-1.149,5.323-2.555,8.186-4.863C188.819,91.312,202.551,89.186,220.868,90.41"/>
	<path id="path4" fill="#FFFFFF" d="M200.8,90.618c-9.371,1.067-14.404,2.648-18.214,5.719c-2.863,2.308-5.23,3.714-8.186,4.863
		c-2.913,1.132-4.906,3.132-6.872,6.901c-1.436,2.751-5.278,7.099-6.274,7.099c-1.547,0-3.607,8.546-4.05,16.8
		c-0.59,10.975,0.966,17.348,5.285,21.645c1.708,1.7,3.011,3.468,3.851,5.229c1.663,3.484,4.228,5.797,8.112,7.313
		c2.42,0.944,3.449,1.653,5.748,3.957c3.266,3.273,5.313,4.252,13.536,6.474c6.477,1.751,8.594,2.696,11.667,5.21
		c1.318,1.079,4.377,3.081,6.798,4.449c9.204,5.204,9.573,5.71,9.985,13.721c0.439,8.522-0.652,9.948-10.65,13.91
		c-8.553,3.39-14.823,4.296-20.508,2.965c-1.995-0.468-4.718-1.037-6.052-1.265c-1.334-0.229-4.394-0.863-6.8-1.408
		c-3.675-0.834-5.409-0.993-10.837-0.996l-6.463-0.004l-1.237,1.869c-0.681,1.027-1.246,2.062-1.256,2.3
		c-0.01,0.237-0.353,2.674-0.761,5.416c-1.148,7.708,1.079,13.877,5.709,15.812c15.586,6.512,59.523,5.169,65.475-2.003
		c1.026-1.236,4.118-3.12,7.362-4.485c3.985-1.677,5.056-2.672,7.101-6.595c1.478-2.838,3.076-4.711,6.642-7.785
		c5.827-5.024,5.235-31.974-0.862-39.273c-0.768-0.919-1.962-2.882-2.654-4.363c-1.44-3.083-5.004-6.994-8.338-9.152
		c-1.18-0.764-2.854-2.168-3.721-3.12c-1.965-2.16-5.184-3.882-9.334-4.997c-3.48-0.934-10.995-4.285-13.68-6.1
		c-0.926-0.624-3.805-1.99-6.4-3.033c-11.947-4.804-14.259-7.15-16.175-16.413l-0.771-3.723l1.1-2.02
		c1.555-2.858,3.199-4.035,8.556-6.13c2.584-1.011,5.479-2.367,6.435-3.014c2.272-1.54,10.793-1.787,14.277-0.414
		c1.73,0.682,14.918,3.912,18.916,4.633c2.654,0.479,5.045-2.112,5.915-6.41c0.267-1.32,0.921-3.864,1.455-5.653l0.97-3.253
		l-1.176-3.947c-2.469-8.295-2.747-8.531-11.486-9.72C221.016,90.006,209.381,89.64,200.8,90.618 M220.678,93.218
		c7.785,0.636,9.123,0.949,11.033,2.584c0.913,0.781,2.656,1.872,3.874,2.424c1.218,0.553,2.485,1.151,2.815,1.33
		c0.33,0.179,1.094,1.508,1.697,2.953l1.098,2.627l-0.652,5.732c-0.779,6.843-0.867,6.985-3.857,6.316
		c-1.826-0.409-2.457-0.791-3.645-2.213c-3.081-3.686-9.663-5.67-20.055-6.046c-9.4-0.34-13.676,1.165-16.246,5.719
		c-1.205,2.136-1.393,2.268-3.94,2.775c-6.454,1.285-8.54,6.548-7.204,18.173c0.747,6.494,2.692,9.642,6.803,11.008
		c4.419,1.467,7.844,3.321,8.837,4.782c2.795,4.108,7.49,5.858,22.925,8.542c2.542,0.443,4.069,0.902,4.265,1.283
		c0.168,0.326,0.773,1.605,1.344,2.842c1.199,2.596,2.9,3.95,6.23,4.957c4.521,1.368,4.907,1.792,5.777,6.347
		c1,5.217,3.627,9.972,6.686,12.091c1.232,0.853,1.688,1.532,2.225,3.314c1.25,4.139,0.426,18.442-1.06,18.442
		c-0.801,0-4.168,3.503-5.062,5.267c-0.549,1.081-1.59,2.743-2.316,3.695c-0.734,0.961-1.818,3.263-2.443,5.183
		c-1.32,4.057-1.259,3.993-4.606,4.846c-1.431,0.364-3.771,1.175-5.2,1.8c-1.43,0.627-3.95,1.439-5.6,1.809
		c-4.319,0.965-6.904,2.262-9.561,4.795c-3.449,3.289-4.865,3.52-20.44,3.295c-14.142-0.204-16.746-0.547-18.689-2.463
		c-2.272-2.24-6.935-4.606-10.944-5.553c-5.303-1.254-5.902-2.812-3.95-10.273c0.307-1.173,0.676-1.524,2.275-2.167
		c1.049-0.422,2.671-1.284,3.604-1.917c1.377-0.933,2.18-1.165,4.262-1.233l2.565-0.083l2.034,2.119
		c4.221,4.397,10.976,5.98,23.676,5.548c8.883-0.302,11.885-1.457,14.898-5.732c1.062-1.508,1.596-1.859,3.852-2.537
		c6.654-2,8.353-5.643,7.811-16.749c-0.436-8.934-2.866-13.621-7.077-13.653c-1.473-0.011-4.627-1.964-5.026-3.113
		c-1.487-4.266-7.371-7.243-15.607-7.898c-5.183-0.412-7.921-1.571-9.486-4.018c-1.431-2.237-2.227-2.887-6.287-5.136
		c-1.765-0.977-3.91-1.739-6.234-2.216c-4.768-0.976-5.039-1.184-5.568-4.272c-0.786-4.589-4.631-10.798-8.124-13.118
		c-4.004-2.659-3.687-19.413,0.425-22.431c1.757-1.289,3.174-3.066,4.302-5.394c0.267-0.55,1.109-1.864,1.871-2.919
		c0.762-1.056,1.789-3.216,2.282-4.8c1.166-3.747,1.476-4.069,4.874-5.063c1.575-0.461,3.853-1.27,5.063-1.797
		s3.511-1.357,5.114-1.844c3.527-1.073,6.015-2.654,7.463-4.744C195.964,93.277,206.289,92.043,220.678,93.218"/>
</g>
</svg>
