<svg id="svg" version="1.1" width="400" height="268.9655172413793" viewBox="0 0 400 268.9655172413793" xmlns="http://www.w3.org/2000/svg" xmlns:xlink="http://www.w3.org/1999/xlink" ><g id="svgg"><path id="path0" d="M113.920 181.305 C 113.975 181.822,114.247 183.215,114.524 184.398 C 115.744 189.603,114.873 189.443,142.300 189.495 L 163.147 189.535 142.838 189.388 C 121.793 189.235,122.125 189.253,120.780 188.175 C 120.558 187.997,119.802 187.640,119.101 187.381 C 117.639 186.842,116.347 185.452,115.886 183.921 C 115.691 183.275,115.327 182.784,114.885 182.573 C 114.412 182.347,114.131 181.941,114.005 181.302 L 113.820 180.363 113.920 181.305 M299.642 181.574 C 299.580 181.944,299.263 182.363,298.939 182.505 C 298.606 182.651,298.154 183.273,297.904 183.928 C 297.159 185.877,295.071 187.761,293.655 187.761 C 293.445 187.761,293.113 187.955,292.916 188.192 C 292.068 189.213,291.630 189.237,271.284 189.380 L 251.379 189.521 270.563 189.582 C 297.439 189.668,298.253 189.527,299.154 184.620 C 299.313 183.758,299.565 182.797,299.714 182.483 C 299.864 182.170,299.934 181.686,299.870 181.407 C 299.777 180.998,299.733 181.030,299.642 181.574 M250.365 189.937 C 250.953 192.183,247.300 195.801,245.040 195.210 C 244.753 195.135,244.571 195.158,244.635 195.262 C 244.825 195.570,244.063 200.479,243.702 201.265 C 243.262 202.223,242.127 202.730,239.673 203.064 L 237.660 203.338 240.484 203.225 C 244.223 203.077,244.375 202.922,244.643 198.982 L 244.835 196.167 246.762 196.035 C 250.149 195.801,250.913 195.045,251.168 191.670 C 251.304 189.884,251.271 189.713,250.776 189.584 C 250.354 189.474,250.264 189.550,250.365 189.937 M247.646 190.717 C 247.255 191.308,246.452 192.111,245.862 192.502 C 244.770 193.224,244.317 194.371,245.259 194.028 C 247.196 193.323,250.231 189.644,248.876 189.644 C 248.568 189.644,248.067 190.081,247.646 190.717 M169.017 193.141 C 169.017 194.102,169.066 194.496,169.125 194.015 C 169.185 193.534,169.185 192.747,169.125 192.266 C 169.066 191.785,169.017 192.179,169.017 193.141 M169.272 195.562 C 169.318 196.063,169.506 196.250,170.007 196.297 C 170.575 196.350,170.599 196.326,170.161 196.142 C 169.876 196.023,169.546 195.692,169.426 195.407 C 169.243 194.969,169.219 194.993,169.272 195.562 M172.360 196.565 C 172.989 196.622,174.018 196.622,174.647 196.565 C 175.276 196.509,174.761 196.463,173.504 196.463 C 172.246 196.463,171.732 196.509,172.360 196.565 M175.965 201.564 C 175.904 202.715,176.366 203.368,177.212 203.326 C 177.816 203.296,177.841 203.270,177.356 203.175 C 176.598 203.028,176.269 202.611,176.123 201.614 L 176.005 200.807 175.965 201.564 M237.574 207.315 C 237.487 209.323,236.733 209.868,233.737 210.089 C 231.249 210.272,231.237 210.276,233.087 210.313 C 237.049 210.392,237.910 209.867,237.724 207.488 L 237.622 206.187 237.574 207.315 M182.936 209.159 C 182.910 209.994,183.448 210.360,184.654 210.325 C 185.253 210.308,185.501 210.243,185.205 210.180 C 184.909 210.118,184.390 210.007,184.050 209.934 C 183.711 209.862,183.325 209.534,183.193 209.205 C 182.964 208.636,182.952 208.634,182.936 209.159 M187.296 210.291 L 186.159 210.387 186.847 211.426 C 187.225 211.998,187.995 212.770,188.558 213.143 L 189.581 213.820 189.709 212.155 C 189.780 211.240,189.824 210.478,189.808 210.462 C 189.658 210.313,188.209 210.215,187.296 210.291 M230.892 213.181 C 230.893 214.364,230.941 214.815,230.998 214.183 C 231.054 213.550,231.054 212.581,230.996 212.031 C 230.938 211.480,230.892 211.997,230.892 213.181 M189.680 215.246 C 189.645 216.452,190.098 217.350,190.739 217.350 C 190.876 217.350,190.989 217.548,190.989 217.790 C 190.989 219.982,192.655 221.980,195.034 222.642 C 195.916 222.887,196.638 223.236,196.638 223.418 C 196.638 223.810,197.260 224.085,198.072 224.051 C 198.498 224.033,198.421 223.959,197.784 223.775 C 196.789 223.488,196.477 222.726,196.754 221.253 C 196.902 220.463,196.862 220.343,196.495 220.484 C 196.196 220.599,195.566 220.140,194.457 219.000 C 193.574 218.093,192.645 217.349,192.391 217.346 C 191.996 217.343,191.987 217.306,192.334 217.085 C 192.617 216.904,192.456 216.868,191.796 216.964 C 190.505 217.152,190.106 216.799,189.896 215.284 L 189.715 213.988 189.680 215.246 M230.397 216.048 C 230.249 216.385,229.825 216.743,229.455 216.844 L 228.783 217.028 229.490 217.055 C 230.285 217.085,230.890 216.518,230.755 215.868 C 230.686 215.536,230.603 215.578,230.397 216.048 M224.681 217.274 C 225.087 217.336,225.753 217.336,226.160 217.274 C 226.567 217.212,226.234 217.162,225.420 217.162 C 224.607 217.162,224.274 217.212,224.681 217.274 M223.806 222.275 C 223.806 223.111,223.278 223.743,222.461 223.885 L 221.789 224.002 222.509 224.039 C 223.439 224.086,224.075 223.437,224.075 222.442 C 224.075 222.009,224.015 221.654,223.941 221.654 C 223.867 221.654,223.806 221.934,223.806 222.275 " stroke="none" fill="#000000" fill-rule="evenodd"></path><path id="path1" d="M15.970 43.731 L 15.064 44.692 15.064 75.918 L 15.064 107.144 16.151 108.179 L 17.239 109.213 34.442 109.213 L 51.646 109.213 52.754 108.212 L 53.862 107.211 53.685 105.487 C 52.988 98.680,53.561 99.055,43.622 98.921 C 32.553 98.773,30.980 98.393,28.783 95.342 L 27.841 94.034 27.759 89.990 C 27.617 83.033,29.352 81.965,41.560 81.492 C 46.440 81.304,49.698 80.915,51.685 80.284 C 52.624 79.986,52.757 79.259,52.282 77.015 C 51.379 72.757,49.155 71.554,42.180 71.552 C 35.702 71.550,31.320 70.575,29.650 68.763 C 27.815 66.773,27.706 66.398,27.709 62.085 C 27.715 54.027,30.076 52.725,44.679 52.724 C 52.971 52.724,52.470 52.892,53.100 49.887 C 53.997 45.605,53.980 44.730,52.976 43.696 L 52.080 42.771 34.478 42.771 L 16.876 42.771 15.970 43.731 M132.347 51.335 C 127.571 53.120,126.969 53.780,125.211 59.159 C 124.396 61.654,123.074 63.395,121.312 64.294 C 119.452 65.242,119.443 66.270,121.272 68.934 C 124.676 73.893,125.353 76.714,125.353 85.936 C 125.353 97.954,125.943 101.022,128.585 102.734 C 129.904 103.588,130.861 104.672,131.649 106.202 C 132.690 108.222,135.476 109.040,141.223 109.013 C 142.668 109.006,148.141 107.612,148.521 107.154 C 148.977 106.605,148.474 103.672,147.574 101.637 C 146.923 100.165,146.846 100.100,144.021 98.604 C 140.571 96.778,140.024 96.369,138.876 94.755 L 137.996 93.517 137.996 86.182 C 137.996 77.151,138.953 73.855,142.074 72.135 C 146.046 69.946,148.360 68.136,148.826 66.853 C 149.462 65.104,149.264 64.919,145.357 63.612 C 139.780 61.745,138.346 60.457,137.584 56.624 C 136.465 50.997,135.597 50.120,132.347 51.335 M71.224 63.949 C 70.592 64.307,69.802 64.854,69.469 65.164 L 68.863 65.729 68.863 86.237 L 68.863 106.744 69.706 107.454 C 71.528 108.986,72.337 109.213,75.981 109.213 L 79.354 109.213 80.404 108.164 L 81.453 107.114 81.554 93.302 C 81.665 77.998,81.616 78.429,83.515 76.182 C 84.893 74.552,85.894 74.243,89.804 74.243 L 93.281 74.243 94.567 75.118 C 97.661 77.222,97.855 78.511,97.894 97.279 L 97.915 107.268 98.992 108.240 L 100.069 109.213 103.523 109.213 L 106.978 109.213 108.640 108.139 L 110.303 107.064 110.217 92.739 C 110.103 73.748,109.645 71.316,105.649 68.481 C 104.799 67.878,103.746 66.892,103.309 66.291 C 102.120 64.653,100.400 63.847,97.646 63.639 C 93.318 63.311,92.542 63.378,90.012 64.302 C 87.762 65.123,87.401 65.353,86.555 66.503 C 86.238 66.935,86.129 66.914,85.003 66.210 C 84.099 65.644,82.737 65.238,79.623 64.606 C 72.729 63.207,72.559 63.193,71.224 63.949 M160.917 64.368 L 159.785 65.521 159.785 86.214 L 159.785 106.906 160.917 108.060 L 162.049 109.213 165.366 109.213 C 168.864 109.213,169.676 108.995,171.680 107.513 L 172.428 106.960 172.428 96.391 L 172.428 85.823 173.101 84.034 C 173.471 83.050,174.301 81.504,174.946 80.598 C 175.590 79.692,176.320 78.555,176.568 78.071 C 177.174 76.891,178.897 75.687,180.737 75.158 C 186.134 73.606,186.522 73.014,185.971 67.178 L 185.799 65.359 184.329 64.439 C 183.084 63.661,182.751 63.561,182.155 63.787 C 180.263 64.506,178.700 65.499,177.738 66.592 C 176.025 68.538,175.923 68.545,174.084 66.842 C 171.663 64.601,169.765 63.848,165.970 63.623 C 164.269 63.522,162.692 63.389,162.464 63.327 C 162.229 63.263,161.560 63.713,160.917 64.368 M207.128 63.649 C 205.427 63.852,202.971 64.342,201.670 64.738 L 199.305 65.458 199.462 66.287 C 199.905 68.619,200.762 71.842,201.041 72.224 C 201.753 73.197,204.193 73.073,206.506 71.945 C 211.494 69.512,217.492 72.226,219.741 77.933 L 220.272 79.279 219.569 80.266 C 218.178 82.222,217.564 82.422,209.085 83.681 C 202.815 84.612,200.896 85.249,199.721 86.789 C 199.339 87.290,198.345 88.152,197.512 88.705 C 196.549 89.345,195.590 90.309,194.876 91.354 L 193.754 92.997 193.616 96.465 C 193.493 99.561,193.536 100.047,194.015 100.995 C 196.119 105.163,198.789 107.470,202.924 108.696 C 205.256 109.388,211.187 109.037,214.308 108.022 L 217.319 107.044 221.033 107.723 C 230.012 109.363,231.492 109.325,233.886 107.398 L 234.637 106.793 234.497 93.679 L 234.356 80.565 233.506 76.395 C 232.587 71.889,231.973 70.531,230.485 69.714 C 228.455 68.600,227.197 67.621,226.408 66.544 C 224.343 63.725,216.437 62.538,207.128 63.649 M270.208 63.985 C 267.515 64.911,266.861 65.257,266.124 66.141 L 265.537 66.846 264.215 66.114 C 262.863 65.365,256.403 63.906,252.958 63.572 C 251.384 63.419,251.240 63.457,249.797 64.415 L 248.285 65.419 248.285 86.214 L 248.285 107.009 249.832 108.044 L 251.379 109.079 255.010 109.163 L 258.642 109.246 259.772 108.087 L 260.903 106.927 260.983 92.939 C 261.072 77.278,260.984 77.989,263.097 75.923 C 264.585 74.468,265.372 74.243,268.982 74.243 C 273.352 74.243,274.688 74.931,276.296 78.009 L 276.929 79.220 277.021 93.132 L 277.113 107.043 278.198 108.128 L 279.283 109.213 282.623 109.213 C 286.125 109.213,287.216 108.909,289.110 107.402 L 289.720 106.917 289.640 92.934 L 289.559 78.951 288.750 75.319 C 287.816 71.132,287.215 70.033,285.075 68.595 C 284.304 68.077,283.307 67.153,282.859 66.541 C 281.361 64.496,279.831 63.817,276.261 63.615 C 274.560 63.519,272.986 63.396,272.764 63.343 C 272.542 63.289,271.392 63.578,270.208 63.985 M324.277 63.660 C 318.707 64.305,315.720 65.590,312.576 68.692 C 311.762 69.495,310.371 70.680,309.485 71.324 C 306.214 73.701,304.827 76.487,304.095 82.152 C 303.867 83.913,303.621 85.450,303.548 85.567 C 303.012 86.435,305.220 98.780,306.195 100.365 C 306.376 100.658,307.613 101.420,308.944 102.059 C 311.351 103.212,313.327 104.504,315.279 106.200 C 318.600 109.084,332.236 110.149,335.748 107.799 L 336.996 106.964 336.621 105.901 C 336.415 105.317,335.875 104.084,335.421 103.162 L 334.595 101.485 332.961 101.314 C 332.062 101.220,330.506 101.143,329.504 101.143 C 327.979 101.143,327.557 101.039,326.920 100.505 C 326.502 100.154,324.647 99.113,322.798 98.192 C 317.778 95.690,317.145 94.905,316.443 90.312 C 315.753 85.795,316.441 80.346,317.984 78.103 C 318.981 76.654,319.811 76.032,323.336 74.088 C 324.889 73.232,326.480 72.269,326.870 71.950 C 327.486 71.447,328.037 71.347,331.002 71.207 C 332.884 71.118,334.476 70.993,334.540 70.930 C 334.604 70.866,335.192 69.624,335.846 68.171 L 337.036 65.528 335.824 64.666 C 334.678 63.852,334.438 63.794,331.462 63.623 C 329.729 63.524,328.130 63.407,327.909 63.365 C 327.687 63.322,326.052 63.455,324.277 63.660 M364.896 63.470 C 361.256 63.638,357.438 64.779,357.039 65.817 C 356.959 66.028,356.496 66.470,356.011 66.799 C 354.831 67.601,351.559 71.871,350.647 73.799 C 350.244 74.650,349.454 75.879,348.891 76.530 C 345.578 80.357,345.130 93.783,348.182 97.751 C 349.259 99.151,355.357 105.141,356.296 105.721 C 356.780 106.020,357.239 106.429,357.316 106.630 C 358.224 108.997,372.520 109.753,377.190 107.680 L 378.723 106.999 378.204 105.631 C 377.918 104.879,377.288 103.671,376.804 102.946 L 375.925 101.628 372.428 101.765 C 368.431 101.922,366.024 101.190,365.182 99.562 C 364.773 98.772,362.774 96.839,362.366 96.839 C 362.092 96.839,361.163 95.341,360.594 93.980 C 360.221 93.087,360.234 93.046,361.151 92.128 L 362.089 91.190 372.430 91.190 L 382.772 91.190 383.168 90.585 C 384.601 88.398,384.996 86.378,384.707 82.717 C 384.260 77.063,383.465 75.277,379.555 71.150 C 378.574 70.114,377.280 68.601,376.679 67.787 C 374.081 64.268,371.119 63.182,364.896 63.470 M370.151 73.847 C 372.011 75.220,373.646 78.592,373.121 79.973 C 372.061 82.761,370.200 83.658,365.478 83.658 L 361.594 83.658 360.307 82.784 C 359.533 82.259,358.746 81.414,358.334 80.666 L 357.648 79.422 358.113 77.946 C 358.674 76.167,359.893 74.416,361.071 73.698 C 362.529 72.808,368.885 72.913,370.151 73.847 M218.664 89.022 C 223.836 91.661,221.758 98.971,215.646 99.637 C 214.783 99.731,213.736 99.984,213.320 100.199 C 210.718 101.545,209.593 101.054,208.367 98.037 C 206.559 93.587,206.647 92.178,208.835 90.545 C 210.972 88.950,216.764 88.053,218.664 89.022 " stroke="none" fill="#ffffff" fill-rule="evenodd"></path><path id="path2" d="M0.000 87.962 L 0.000 175.925 56.893 175.925 L 113.786 175.925 113.806 177.875 C 113.839 181.110,114.087 182.190,114.885 182.572 C 115.327 182.784,115.691 183.275,115.886 183.921 C 116.347 185.452,117.639 186.842,119.101 187.381 C 119.802 187.640,120.558 187.997,120.780 188.175 C 122.132 189.259,121.639 189.235,145.573 189.375 C 158.247 189.449,168.698 189.590,168.798 189.690 C 168.897 189.790,169.062 191.104,169.163 192.611 C 169.405 196.222,169.564 196.369,173.226 196.369 L 175.847 196.369 175.995 199.126 C 176.213 203.198,176.391 203.358,180.699 203.361 L 182.919 203.362 182.919 205.900 C 182.919 210.255,182.826 210.192,189.463 210.345 C 189.872 210.354,189.924 210.497,189.773 211.185 C 189.673 211.641,189.677 212.976,189.781 214.154 C 190.006 216.703,190.363 217.209,191.775 216.982 C 192.442 216.875,192.613 216.907,192.334 217.085 C 191.987 217.306,191.996 217.343,192.391 217.346 C 192.645 217.349,193.574 218.093,194.457 219.000 C 195.587 220.162,196.193 220.600,196.505 220.480 C 196.878 220.337,196.921 220.439,196.772 221.117 C 196.121 224.082,196.308 224.121,210.837 224.019 C 225.073 223.920,223.764 224.335,224.005 219.839 L 224.153 217.081 226.360 217.081 C 230.317 217.081,230.800 216.643,230.800 213.051 C 230.800 210.062,230.779 210.090,233.048 210.072 C 236.834 210.042,237.387 209.510,237.681 205.610 L 237.866 203.164 239.751 202.989 C 242.023 202.778,243.255 202.240,243.702 201.265 C 244.063 200.479,244.825 195.570,244.635 195.262 C 244.571 195.158,244.753 195.135,245.040 195.210 C 247.310 195.804,250.953 192.182,250.361 189.919 C 250.230 189.420,250.708 189.407,269.840 189.383 C 289.944 189.358,291.769 189.272,292.808 188.295 C 293.121 188.001,293.525 187.761,293.707 187.761 C 295.073 187.761,297.172 185.844,297.904 183.928 C 298.149 183.286,298.609 182.648,298.930 182.505 C 299.694 182.165,299.874 181.411,299.906 178.413 L 299.933 175.925 349.966 175.925 L 400.000 175.925 400.000 87.962 L 400.000 0.000 200.000 0.000 L 0.000 0.000 0.000 87.962 M54.357 40.013 C 56.834 41.268,57.167 42.178,57.139 47.613 C 57.093 56.336,56.215 57.021,45.057 57.025 L 37.794 57.028 36.113 57.823 L 34.432 58.619 34.432 62.090 L 34.432 65.562 36.012 66.271 C 37.430 66.908,37.921 66.981,40.787 66.986 C 54.647 67.010,56.446 68.021,56.899 76.039 C 57.341 83.851,55.546 84.947,42.233 84.985 C 38.373 84.996,37.575 85.075,36.113 85.588 L 34.432 86.179 34.432 89.622 L 34.432 93.064 35.844 93.809 L 37.256 94.553 45.079 94.687 L 52.902 94.822 54.225 95.629 C 56.592 97.073,57.112 98.576,57.139 104.058 C 57.168 109.627,56.858 110.441,54.203 111.769 L 52.589 112.576 34.566 112.576 C 13.144 112.576,13.564 112.647,12.118 108.783 C 11.367 106.775,11.240 45.852,11.982 43.354 C 13.209 39.221,12.655 39.320,34.585 39.295 L 52.896 39.274 54.357 40.013 M138.150 47.080 C 143.371 48.415,144.721 50.046,144.721 55.019 L 144.721 58.579 146.268 59.314 C 147.118 59.719,148.359 60.215,149.025 60.417 C 152.904 61.596,153.905 63.660,153.213 69.056 C 152.622 73.665,151.771 75.149,148.892 76.588 C 148.152 76.959,146.908 77.738,146.129 78.320 L 144.712 79.379 144.784 86.282 L 144.855 93.185 146.469 94.102 C 147.357 94.606,148.615 95.203,149.265 95.429 C 152.221 96.457,153.282 98.669,153.360 103.968 C 153.470 111.443,151.815 112.463,139.610 112.443 C 131.108 112.429,130.071 112.108,126.366 108.342 C 122.231 104.139,122.159 103.836,121.944 89.576 C 121.756 77.071,121.692 76.727,119.616 77.042 C 118.903 77.150,118.273 77.461,117.888 77.895 L 117.283 78.577 117.283 92.798 L 117.283 107.019 116.397 108.184 C 112.357 113.495,97.900 114.565,95.225 109.751 L 94.553 108.541 94.380 96.032 C 94.226 84.825,93.961 79.868,93.473 79.080 C 93.221 78.671,86.206 78.739,85.881 79.153 C 85.317 79.869,85.003 86.080,85.003 96.509 C 85.003 112.215,84.777 112.595,75.454 112.559 C 69.016 112.534,66.005 111.537,63.212 108.507 L 62.139 107.342 62.139 86.229 L 62.139 65.116 62.993 64.143 C 66.011 60.705,68.978 59.858,76.933 60.164 C 83.352 60.411,85.106 60.407,93.880 60.121 C 105.887 59.729,110.520 62.216,112.028 69.864 C 112.612 72.826,113.532 75.611,113.984 75.784 C 115.397 76.327,116.426 73.843,115.983 70.961 C 114.950 64.239,115.686 61.955,119.301 60.663 C 121.073 60.030,121.783 59.230,121.984 57.638 C 122.876 50.579,123.563 48.953,126.232 47.580 C 128.324 46.504,134.831 46.231,138.150 47.080 M172.159 60.437 C 175.667 60.985,175.894 60.983,179.706 60.376 C 183.246 59.813,186.076 60.138,188.551 61.391 L 189.778 62.012 192.065 61.548 C 199.552 60.029,222.129 59.396,226.429 60.586 C 231.079 61.873,235.402 66.260,236.182 70.484 C 236.583 72.657,237.807 76.664,238.068 76.664 C 238.389 76.664,240.406 74.369,240.865 73.481 C 241.191 72.849,241.291 71.817,241.291 69.074 C 241.291 64.728,241.563 64.173,244.687 62.134 C 247.769 60.122,249.372 59.852,256.468 60.150 C 259.587 60.282,263.289 60.366,264.694 60.339 C 276.715 60.103,281.048 60.141,282.448 60.494 C 287.448 61.755,290.513 65.091,291.453 70.296 C 292.233 74.611,292.744 75.677,294.373 76.391 C 295.343 76.816,296.390 77.658,297.835 79.177 C 298.975 80.374,299.963 81.296,300.033 81.227 C 300.102 81.158,300.353 80.073,300.590 78.816 C 302.137 70.620,302.875 69.112,305.985 67.787 C 307.691 67.061,308.682 66.124,309.538 64.425 C 311.378 60.776,313.292 60.270,326.073 60.057 C 334.766 59.912,336.785 60.090,339.072 61.200 C 340.859 62.068,343.591 64.795,344.156 66.276 C 344.644 67.553,345.295 67.980,347.143 68.233 C 348.388 68.403,349.856 66.945,350.841 64.560 C 352.293 61.043,355.743 60.002,365.972 59.993 C 376.154 59.984,378.686 60.762,380.378 64.425 C 381.211 66.227,382.402 67.484,383.959 68.204 C 385.422 68.881,386.725 70.320,387.201 71.784 C 388.248 74.999,388.710 84.878,388.034 89.576 C 387.181 95.508,386.831 99.420,386.825 103.104 C 386.812 110.934,383.881 112.443,368.661 112.454 C 355.834 112.462,352.671 111.700,351.028 108.205 C 349.170 104.253,346.341 103.826,343.743 107.107 C 339.952 111.894,338.239 112.460,327.546 112.459 C 313.917 112.459,310.282 111.539,308.262 107.579 C 307.835 106.743,307.471 106.454,306.356 106.064 C 303.249 104.977,302.414 103.700,300.989 97.848 C 299.981 93.712,300.020 93.761,298.837 95.171 C 297.090 97.251,296.466 99.464,296.450 103.631 L 296.436 107.329 295.435 108.436 C 292.633 111.537,289.524 112.571,282.986 112.574 C 273.789 112.578,273.572 112.193,273.569 95.916 C 273.567 86.181,273.375 81.495,272.892 79.414 C 272.751 78.808,272.712 78.802,268.928 78.876 L 265.106 78.951 264.876 80.027 C 264.749 80.619,264.566 87.095,264.468 94.418 L 264.291 107.734 263.585 109.238 C 262.361 111.849,260.330 112.710,255.400 112.710 C 251.476 112.710,248.048 112.119,246.028 111.094 C 243.805 109.965,238.693 109.878,237.125 110.942 C 234.972 112.403,230.716 112.734,220.713 112.216 C 218.790 112.116,216.369 112.124,215.333 112.233 C 212.528 112.529,202.488 112.481,199.867 112.160 C 194.605 111.515,193.855 110.989,191.423 106.235 C 190.111 103.671,189.235 102.307,188.399 101.529 C 187.603 100.788,187.223 100.211,187.223 99.747 C 187.223 98.603,188.510 93.902,189.074 92.988 C 189.365 92.517,189.854 91.459,190.161 90.636 C 190.469 89.813,191.132 88.457,191.634 87.622 C 192.137 86.787,192.769 85.523,193.039 84.814 C 194.233 81.669,196.022 80.699,200.630 80.699 C 203.368 80.699,208.541 79.873,209.112 79.345 C 210.059 78.468,202.793 77.501,198.872 77.982 L 196.399 78.286 193.492 77.315 C 191.893 76.781,190.416 76.250,190.210 76.135 C 189.983 76.009,189.279 76.220,188.422 76.670 C 187.624 77.090,186.149 77.547,185.031 77.720 C 181.564 78.258,180.955 78.759,180.644 81.327 C 180.539 82.190,180.221 83.571,179.938 84.395 C 179.464 85.773,179.422 86.745,179.422 96.349 L 179.422 106.804 178.682 107.923 C 175.521 112.704,161.972 114.629,158.179 110.835 C 156.264 108.920,156.288 109.234,156.288 86.178 C 156.288 61.760,156.229 62.211,159.624 60.631 C 161.363 59.821,167.592 59.725,172.159 60.437 M340.596 71.881 C 338.945 76.253,337.308 77.219,331.137 77.461 C 326.344 77.650,325.159 78.092,323.588 80.279 C 323.134 80.910,322.252 81.788,321.626 82.228 C 318.868 84.173,319.074 88.773,322.055 91.779 C 324.571 94.317,327.101 95.225,331.654 95.225 C 336.338 95.225,338.079 95.732,340.102 97.682 C 340.846 98.398,341.488 98.951,341.530 98.910 C 342.236 98.204,342.510 94.937,342.761 84.253 C 343.047 72.106,343.012 71.404,342.069 70.307 L 341.458 69.597 340.596 71.881 M361.838 78.908 C 361.189 79.690,362.126 79.912,365.740 79.833 C 368.995 79.762,369.200 79.726,369.200 79.220 C 369.200 78.520,362.399 78.231,361.838 78.908 M215.288 92.483 C 213.663 93.144,213.666 93.214,215.340 94.007 C 217.024 94.803,217.377 94.770,218.043 93.753 C 218.986 92.314,217.448 91.605,215.288 92.483 M248.648 191.015 C 247.962 192.276,246.498 193.577,245.259 194.028 C 244.317 194.371,244.770 193.224,245.862 192.502 C 246.452 192.111,247.255 191.308,247.646 190.717 C 248.795 188.981,249.622 189.226,248.648 191.015 " stroke="none" fill="#5e2b65" fill-rule="evenodd"></path><path id="path3" d="M15.143 39.717 C 13.686 40.233,12.505 41.591,11.982 43.354 C 11.240 45.852,11.367 106.775,12.118 108.783 C 13.564 112.647,13.144 112.576,34.566 112.576 L 52.589 112.576 54.203 111.769 C 56.858 110.441,57.168 109.627,57.139 104.058 C 57.112 98.576,56.592 97.073,54.225 95.629 L 52.902 94.822 45.079 94.687 L 37.256 94.553 35.844 93.809 L 34.432 93.064 34.432 89.622 L 34.432 86.179 36.113 85.588 C 37.575 85.075,38.373 84.996,42.233 84.985 C 55.546 84.947,57.341 83.851,56.899 76.039 C 56.446 68.021,54.647 67.010,40.787 66.986 C 37.921 66.981,37.430 66.908,36.012 66.271 L 34.432 65.562 34.432 62.090 L 34.432 58.619 36.113 57.823 L 37.794 57.028 45.057 57.025 C 56.215 57.021,57.093 56.336,57.139 47.613 C 57.167 42.178,56.834 41.268,54.357 40.013 L 52.896 39.274 34.585 39.295 C 19.088 39.313,16.101 39.378,15.143 39.717 M52.976 43.696 C 53.980 44.730,53.997 45.605,53.100 49.887 C 52.470 52.892,52.971 52.724,44.679 52.724 C 30.076 52.725,27.715 54.027,27.709 62.085 C 27.704 69.548,30.763 71.549,42.180 71.552 C 49.155 71.554,51.379 72.757,52.282 77.015 C 52.757 79.259,52.624 79.986,51.685 80.284 C 49.698 80.915,46.440 81.304,41.560 81.492 C 29.352 81.965,27.617 83.033,27.759 89.990 L 27.841 94.034 28.783 95.342 C 30.980 98.393,32.553 98.773,43.622 98.921 C 53.561 99.055,52.988 98.680,53.685 105.487 L 53.862 107.211 52.754 108.212 L 51.646 109.213 34.442 109.213 L 17.239 109.213 16.151 108.179 L 15.064 107.144 15.064 75.918 L 15.064 44.692 15.970 43.731 L 16.876 42.771 34.478 42.771 L 52.080 42.771 52.976 43.696 M129.191 46.833 C 124.224 47.411,123.056 49.163,121.984 57.638 C 121.783 59.230,121.073 60.030,119.301 60.663 C 115.686 61.955,114.950 64.239,115.983 70.961 C 116.426 73.843,115.397 76.327,113.984 75.784 C 113.532 75.611,112.612 72.826,112.028 69.864 C 110.520 62.216,105.887 59.729,93.880 60.121 C 85.106 60.407,83.352 60.411,76.933 60.164 C 68.978 59.858,66.011 60.705,62.993 64.143 L 62.139 65.116 62.139 86.229 L 62.139 107.342 63.212 108.507 C 66.005 111.537,69.016 112.534,75.454 112.559 C 84.777 112.595,85.003 112.215,85.003 96.509 C 85.003 86.080,85.317 79.869,85.881 79.153 C 86.206 78.739,93.221 78.671,93.473 79.080 C 93.961 79.868,94.226 84.825,94.380 96.032 L 94.553 108.541 95.225 109.751 C 97.900 114.565,112.357 113.495,116.397 108.184 L 117.283 107.019 117.283 92.798 L 117.283 78.577 117.888 77.895 C 118.273 77.461,118.903 77.150,119.616 77.042 C 121.692 76.727,121.756 77.071,121.944 89.576 C 122.159 103.836,122.231 104.139,126.366 108.342 C 130.071 112.108,131.108 112.429,139.610 112.443 C 151.815 112.463,153.470 111.443,153.360 103.968 C 153.282 98.669,152.221 96.457,149.265 95.429 C 148.615 95.203,147.357 94.606,146.469 94.102 L 144.855 93.185 144.784 86.282 L 144.712 79.379 146.129 78.320 C 146.908 77.738,148.152 76.959,148.892 76.588 C 151.771 75.149,152.622 73.665,153.213 69.056 C 153.905 63.660,152.904 61.596,149.025 60.417 C 148.359 60.215,147.118 59.719,146.268 59.314 L 144.721 58.579 144.721 55.019 C 144.721 48.185,139.812 45.597,129.191 46.833 M135.563 51.280 C 136.390 51.768,136.872 53.043,137.584 56.624 C 138.346 60.457,139.780 61.745,145.357 63.612 C 149.264 64.919,149.462 65.104,148.826 66.853 C 148.360 68.136,146.046 69.946,142.074 72.135 C 138.953 73.855,137.996 77.151,137.996 86.182 L 137.996 93.517 138.876 94.755 C 140.024 96.369,140.571 96.778,144.021 98.604 C 146.846 100.100,146.923 100.165,147.574 101.637 C 148.474 103.672,148.977 106.605,148.521 107.154 C 148.141 107.612,142.668 109.006,141.223 109.013 C 135.476 109.040,132.690 108.222,131.649 106.202 C 130.861 104.672,129.904 103.588,128.585 102.734 C 125.943 101.022,125.353 97.954,125.353 85.936 C 125.353 76.714,124.676 73.893,121.272 68.934 C 119.443 66.270,119.452 65.242,121.312 64.294 C 123.074 63.395,124.396 61.654,125.211 59.159 C 126.763 54.410,127.097 53.879,129.232 52.774 C 132.938 50.854,134.299 50.533,135.563 51.280 M159.624 60.631 C 156.229 62.211,156.288 61.760,156.288 86.178 C 156.288 109.234,156.264 108.920,158.179 110.835 C 161.972 114.629,175.521 112.704,178.682 107.923 L 179.422 106.804 179.422 96.349 C 179.422 86.745,179.464 85.773,179.938 84.395 C 180.221 83.571,180.539 82.190,180.644 81.327 C 180.955 78.759,181.564 78.258,185.031 77.720 C 186.149 77.547,187.624 77.090,188.422 76.670 C 189.279 76.220,189.983 76.009,190.210 76.135 C 190.416 76.250,191.893 76.781,193.492 77.315 L 196.399 78.286 198.872 77.982 C 202.793 77.501,210.059 78.468,209.112 79.345 C 208.541 79.873,203.368 80.699,200.630 80.699 C 196.022 80.699,194.233 81.669,193.039 84.814 C 192.769 85.523,192.137 86.787,191.634 87.622 C 191.132 88.457,190.469 89.813,190.161 90.636 C 189.854 91.459,189.365 92.517,189.074 92.988 C 188.510 93.902,187.223 98.603,187.223 99.747 C 187.223 100.211,187.603 100.788,188.399 101.529 C 189.235 102.307,190.111 103.671,191.423 106.235 C 193.855 110.989,194.605 111.515,199.867 112.160 C 202.488 112.481,212.528 112.529,215.333 112.233 C 216.369 112.124,218.790 112.116,220.713 112.216 C 230.716 112.734,234.972 112.403,237.125 110.942 C 238.693 109.878,243.805 109.965,246.028 111.094 C 248.048 112.119,251.476 112.710,255.400 112.710 C 260.330 112.710,262.361 111.849,263.585 109.238 L 264.291 107.734 264.468 94.418 C 264.566 87.095,264.749 80.619,264.876 80.027 L 265.106 78.951 268.928 78.876 C 272.712 78.802,272.751 78.808,272.892 79.414 C 273.375 81.495,273.567 86.181,273.569 95.916 C 273.572 112.193,273.789 112.578,282.986 112.574 C 289.524 112.571,292.633 111.537,295.435 108.436 L 296.436 107.329 296.450 103.631 C 296.466 99.464,297.090 97.251,298.837 95.171 C 300.020 93.761,299.981 93.712,300.989 97.848 C 302.414 103.700,303.249 104.977,306.356 106.064 C 307.471 106.454,307.835 106.743,308.262 107.579 C 310.282 111.539,313.917 112.459,327.546 112.459 C 338.239 112.460,339.952 111.894,343.743 107.107 C 346.341 103.826,349.170 104.253,351.028 108.205 C 352.671 111.700,355.834 112.462,368.661 112.454 C 383.881 112.443,386.812 110.934,386.825 103.104 C 386.831 99.420,387.181 95.508,388.034 89.576 C 388.710 84.878,388.248 74.999,387.201 71.784 C 386.725 70.320,385.422 68.881,383.959 68.204 C 382.402 67.484,381.211 66.227,380.378 64.425 C 378.686 60.762,376.154 59.984,365.972 59.993 C 355.743 60.002,352.293 61.043,350.841 64.560 C 349.856 66.945,348.388 68.403,347.143 68.233 C 345.295 67.980,344.644 67.553,344.156 66.276 C 343.591 64.795,340.859 62.068,339.072 61.200 C 336.785 60.090,334.766 59.912,326.073 60.057 C 313.292 60.270,311.378 60.776,309.538 64.425 C 308.682 66.124,307.691 67.061,305.985 67.787 C 302.875 69.112,302.137 70.620,300.590 78.816 C 300.353 80.073,300.102 81.158,300.033 81.227 C 299.963 81.296,298.975 80.374,297.835 79.177 C 296.390 77.658,295.343 76.816,294.373 76.391 C 292.744 75.677,292.233 74.611,291.453 70.296 C 290.513 65.091,287.448 61.755,282.448 60.494 C 281.048 60.141,276.715 60.103,264.694 60.339 C 263.289 60.366,259.587 60.282,256.468 60.150 C 249.372 59.852,247.769 60.122,244.687 62.134 C 241.563 64.173,241.291 64.728,241.291 69.074 C 241.291 71.817,241.191 72.849,240.865 73.481 C 240.406 74.369,238.389 76.664,238.068 76.664 C 237.807 76.664,236.583 72.657,236.182 70.484 C 235.402 66.260,231.079 61.873,226.429 60.586 C 222.129 59.396,199.552 60.029,192.065 61.548 L 189.778 62.012 188.551 61.391 C 186.076 60.138,183.246 59.813,179.706 60.376 C 175.894 60.983,175.667 60.985,172.159 60.437 C 167.592 59.725,161.363 59.821,159.624 60.631 M79.623 64.606 C 82.737 65.238,84.099 65.644,85.003 66.210 C 86.129 66.914,86.238 66.935,86.555 66.503 C 87.401 65.353,87.762 65.123,90.012 64.302 C 92.542 63.378,93.318 63.311,97.646 63.639 C 100.400 63.847,102.120 64.653,103.309 66.291 C 103.746 66.892,104.799 67.878,105.649 68.481 C 109.645 71.316,110.103 73.748,110.217 92.739 L 110.303 107.064 108.640 108.139 L 106.978 109.213 103.523 109.213 L 100.069 109.213 98.992 108.240 L 97.915 107.268 97.894 97.279 C 97.855 78.511,97.661 77.222,94.567 75.118 L 93.281 74.243 89.804 74.243 C 85.894 74.243,84.893 74.552,83.515 76.182 C 81.616 78.429,81.665 77.998,81.554 93.302 L 81.453 107.114 80.404 108.164 L 79.354 109.213 75.981 109.213 C 72.337 109.213,71.528 108.986,69.706 107.454 L 68.863 106.744 68.863 86.237 L 68.863 65.729 69.469 65.164 C 71.691 63.090,72.056 63.070,79.623 64.606 M165.970 63.623 C 169.765 63.848,171.663 64.601,174.084 66.842 C 175.923 68.545,176.025 68.538,177.738 66.592 C 178.700 65.499,180.263 64.506,182.155 63.787 C 182.751 63.561,183.084 63.661,184.329 64.439 L 185.799 65.359 185.971 67.178 C 186.522 73.014,186.134 73.606,180.737 75.158 C 178.897 75.687,177.174 76.891,176.568 78.071 C 176.320 78.555,175.590 79.692,174.946 80.598 C 174.301 81.504,173.471 83.050,173.101 84.034 L 172.428 85.823 172.428 96.391 L 172.428 106.960 171.680 107.513 C 169.676 108.995,168.864 109.213,165.366 109.213 L 162.049 109.213 160.917 108.060 L 159.785 106.906 159.785 86.214 L 159.785 65.521 160.917 64.368 C 161.560 63.713,162.229 63.263,162.464 63.327 C 162.692 63.389,164.269 63.522,165.970 63.623 M220.074 63.771 C 224.012 64.430,225.260 64.976,226.408 66.544 C 227.197 67.621,228.455 68.600,230.485 69.714 C 231.973 70.531,232.587 71.889,233.506 76.395 L 234.356 80.565 234.497 93.679 L 234.637 106.793 233.886 107.398 C 231.492 109.325,230.012 109.363,221.033 107.723 L 217.319 107.044 214.308 108.022 C 211.187 109.037,205.256 109.388,202.924 108.696 C 198.789 107.470,196.119 105.163,194.015 100.995 C 193.536 100.047,193.493 99.561,193.616 96.465 L 193.754 92.997 194.876 91.354 C 195.590 90.309,196.549 89.345,197.512 88.705 C 198.345 88.152,199.339 87.290,199.721 86.789 C 200.896 85.249,202.815 84.612,209.085 83.681 C 217.564 82.422,218.178 82.222,219.569 80.266 L 220.272 79.279 219.741 77.933 C 217.492 72.226,211.494 69.512,206.506 71.945 C 204.193 73.073,201.753 73.197,201.041 72.224 C 200.762 71.842,199.905 68.619,199.462 66.287 L 199.305 65.458 201.670 64.738 C 206.587 63.241,214.438 62.829,220.074 63.771 M276.261 63.615 C 279.831 63.817,281.361 64.496,282.859 66.541 C 283.307 67.153,284.304 68.077,285.075 68.595 C 287.215 70.033,287.816 71.132,288.750 75.319 L 289.559 78.951 289.640 92.934 L 289.720 106.917 289.110 107.402 C 287.216 108.909,286.125 109.213,282.623 109.213 L 279.283 109.213 278.198 108.128 L 277.113 107.043 277.021 93.132 L 276.929 79.220 276.296 78.009 C 274.688 74.931,273.352 74.243,268.982 74.243 C 265.372 74.243,264.585 74.468,263.097 75.923 C 260.984 77.989,261.072 77.278,260.983 92.939 L 260.903 106.927 259.772 108.087 L 258.642 109.246 255.010 109.163 L 251.379 109.079 249.832 108.044 L 248.285 107.009 248.285 86.214 L 248.285 65.419 249.797 64.415 C 251.240 63.457,251.384 63.419,252.958 63.572 C 256.403 63.906,262.863 65.365,264.215 66.114 L 265.537 66.846 266.124 66.141 C 267.008 65.079,271.724 63.092,272.764 63.343 C 272.986 63.396,274.560 63.519,276.261 63.615 M331.462 63.623 C 334.438 63.794,334.678 63.852,335.824 64.666 L 337.036 65.528 335.846 68.171 C 335.192 69.624,334.604 70.866,334.540 70.930 C 334.476 70.993,332.884 71.118,331.002 71.207 C 328.037 71.347,327.486 71.447,326.870 71.950 C 326.480 72.269,324.889 73.232,323.336 74.088 C 319.811 76.032,318.981 76.654,317.984 78.103 C 316.441 80.346,315.753 85.795,316.443 90.312 C 317.145 94.905,317.778 95.690,322.798 98.192 C 324.647 99.113,326.502 100.154,326.920 100.505 C 327.557 101.039,327.979 101.143,329.504 101.143 C 330.506 101.143,332.062 101.220,332.961 101.314 L 334.595 101.485 335.421 103.162 C 335.875 104.084,336.415 105.317,336.621 105.901 L 336.996 106.964 335.748 107.799 C 332.236 110.149,318.600 109.084,315.279 106.200 C 313.327 104.504,311.351 103.212,308.944 102.059 C 307.613 101.420,306.376 100.658,306.195 100.365 C 305.220 98.780,303.012 86.435,303.548 85.567 C 303.621 85.450,303.867 83.913,304.095 82.152 C 304.827 76.487,306.214 73.701,309.485 71.324 C 310.371 70.680,311.762 69.495,312.576 68.692 C 315.963 65.349,323.900 62.591,327.909 63.365 C 328.130 63.407,329.729 63.524,331.462 63.623 M372.159 64.355 C 374.579 65.268,375.125 65.682,376.679 67.787 C 377.280 68.601,378.574 70.114,379.555 71.150 C 383.465 75.277,384.260 77.063,384.707 82.717 C 384.996 86.378,384.601 88.398,383.168 90.585 L 382.772 91.190 372.430 91.190 L 362.089 91.190 361.151 92.128 C 360.234 93.046,360.221 93.087,360.594 93.980 C 361.163 95.341,362.092 96.839,362.366 96.839 C 362.774 96.839,364.773 98.772,365.182 99.562 C 366.024 101.190,368.431 101.922,372.428 101.765 L 375.925 101.628 376.804 102.946 C 377.288 103.671,377.918 104.879,378.204 105.631 L 378.723 106.999 377.190 107.680 C 372.520 109.753,358.224 108.997,357.316 106.630 C 357.239 106.429,356.780 106.020,356.296 105.721 C 355.357 105.141,349.259 99.151,348.182 97.751 C 345.130 93.783,345.578 80.357,348.891 76.530 C 349.454 75.879,350.244 74.650,350.647 73.799 C 351.559 71.871,354.831 67.601,356.011 66.799 C 356.496 66.470,356.959 66.028,357.039 65.817 C 357.915 63.536,367.523 62.606,372.159 64.355 M342.854 71.948 C 343.471 75.236,342.348 98.091,341.530 98.910 C 341.488 98.951,340.846 98.398,340.102 97.682 C 338.079 95.732,336.338 95.225,331.654 95.225 C 327.101 95.225,324.571 94.317,322.055 91.779 C 319.074 88.773,318.868 84.173,321.626 82.228 C 322.252 81.788,323.134 80.910,323.588 80.279 C 325.159 78.092,326.344 77.650,331.137 77.461 C 337.308 77.219,338.945 76.253,340.596 71.881 L 341.458 69.597 342.069 70.307 C 342.405 70.698,342.758 71.436,342.854 71.948 M361.071 73.698 C 359.893 74.416,358.674 76.167,358.113 77.946 L 357.648 79.422 358.334 80.666 C 358.746 81.414,359.533 82.259,360.307 82.784 L 361.594 83.658 365.478 83.658 C 370.200 83.658,372.061 82.761,373.121 79.973 C 373.646 78.592,372.011 75.220,370.151 73.847 C 368.885 72.913,362.529 72.808,361.071 73.698 M369.200 79.220 C 369.200 79.726,368.995 79.762,365.740 79.833 C 362.126 79.912,361.189 79.690,361.838 78.908 C 362.399 78.231,369.200 78.520,369.200 79.220 M213.634 88.918 C 208.307 89.891,206.458 91.582,207.275 94.735 C 208.784 100.556,210.184 101.821,213.320 100.199 C 213.736 99.984,214.783 99.731,215.646 99.637 C 220.527 99.105,223.374 93.743,220.508 90.479 C 218.817 88.553,217.398 88.231,213.634 88.918 M218.017 92.528 C 218.537 93.103,218.094 94.253,217.225 94.587 C 216.790 94.753,213.743 93.363,213.993 93.113 C 214.938 92.168,217.370 91.814,218.017 92.528 " stroke="none" fill="#947a97" fill-rule="evenodd"></path><path id="path4" d="" stroke="none" fill="#ff00ff" fill-rule="evenodd"></path></g></svg>