<?xml version="1.0" encoding="utf-8"?>
<!-- Generator: Adobe Illustrator 16.0.0, SVG Export Plug-In . SVG Version: 6.00 Build 0)  -->
<!DOCTYPE svg PUBLIC "-//W3C//DTD SVG 1.1//EN" "http://www.w3.org/Graphics/SVG/1.1/DTD/svg11.dtd">
<svg version="1.1" id="svg" xmlns="http://www.w3.org/2000/svg" xmlns:xlink="http://www.w3.org/1999/xlink" x="0px" y="0px"
	 width="314px" height="372.812px" viewBox="43.5 10.278 314 372.812" enable-background="new 43.5 10.278 314 372.812"
	 xml:space="preserve">
<g id="svgg">
	<path id="path0" d="M50.825,317.129c0.183,0.59,0.544,2.146,0.803,3.459c0.627,3.191,2.149,4.758,5.186,5.334
		c5.386,1.024,7.202,0.912,2.197-0.135c-4.66-0.975-6.647-3.023-7.259-7.483c-0.14-1.022-0.481-1.944-0.757-2.052
		C50.621,316.11,50.578,316.334,50.825,317.129 M348.961,316.306c-0.242,0.161-0.564,1.104-0.717,2.094
		c-0.687,4.444-2.626,6.42-7.255,7.388c-5.005,1.047-3.189,1.159,2.196,0.135c3.037-0.576,4.56-2.143,5.187-5.334
		c0.259-1.313,0.625-2.883,0.813-3.488c0.19-0.605,0.315-1.098,0.279-1.094C349.429,316.008,349.202,316.144,348.961,316.306
		 M86.1,327.5c8.085,0.06,21.315,0.06,29.4,0c8.085-0.062,1.47-0.11-14.7-0.11C84.63,327.39,78.015,327.439,86.1,327.5
		 M286.129,327.5c7.882,0.061,20.662,0.061,28.4,0c7.738-0.062,1.291-0.111-14.329-0.11
		C284.58,327.39,278.248,327.439,286.129,327.5 M271.064,329.799c-0.676,5.039-2.193,6.65-7.174,7.619L261,337.98l2.925-0.194
		c5.824-0.39,8.19-3.228,7.593-9.105C271.419,327.713,271.309,327.988,271.064,329.799 M259.907,347.114
		c-0.134,0.508-0.813,1.146-1.571,1.475c-0.734,0.32-1.031,0.588-0.658,0.596c0.949,0.021,2.875-1.725,2.649-2.402
		C260.204,346.411,260.061,346.525,259.907,347.114 M253.3,349.476c0.386,0.101,1.015,0.101,1.4,0
		c0.385-0.101,0.069-0.183-0.7-0.183S252.915,349.375,253.3,349.476 M249.693,354.799c0,0.771,0.082,1.086,0.183,0.701
		s0.101-1.016,0-1.4S249.693,354.03,249.693,354.799 M248.514,359.442c-0.486,0.527-0.725,0.958-0.527,0.958
		c0.47,0,1.613-1.155,1.613-1.629C249.6,358.288,249.559,358.313,248.514,359.442 M243.3,360.676c0.386,0.1,1.015,0.1,1.4,0
		c0.385-0.102,0.069-0.184-0.7-0.184S242.915,360.575,243.3,360.676 M166.8,361.144c0,0.628,3.273,4.073,4.446,4.681l1.154,0.596
		v-2.811v-2.811h-2.8C168.06,360.799,166.8,360.956,166.8,361.144 M172.4,370.728c0,0.181,0.45,0.719,1,1.196
		c0.55,0.479,1.002,1.187,1.004,1.572c0.007,1.315,1.899,4.78,3.05,5.586c1.977,1.383,6.076,2.535,5.842,1.641
		c-0.104-0.398-0.483-0.725-0.843-0.727c-2.426-0.015-6.307-3.801-7.069-6.896c-0.149-0.605-0.521-1.1-0.827-1.1
		c-0.307,0-0.917-0.36-1.357-0.801C172.76,370.76,172.4,370.547,172.4,370.728 M193.911,383.092c0.94,0.086,2.38,0.084,3.2-0.002
		c0.819-0.086,0.049-0.154-1.711-0.153C193.64,382.939,192.97,383.008,193.911,383.092 M212.9,383.09c0.824,0.088,2.175,0.088,3,0
		c0.824-0.086,0.149-0.156-1.5-0.156C212.75,382.934,212.075,383.004,212.9,383.09"/>
	<path id="path1" fill="#FFFFFF" d="M198.8,89.393c-7.934,0.763-14.027,2.758-17.637,5.774c-1.261,1.054-3.973,2.779-6.028,3.834
		c-5.181,2.661-6.22,3.59-8.735,7.811c-1.391,2.335-2.97,4.361-4.296,5.513c-4.826,4.193-6.866,12.017-6.38,24.475
		c0.387,9.89,1.489,13.412,5.644,18.024c1.403,1.558,3.1,3.855,3.772,5.105c1.825,3.395,4.011,5.379,8.182,7.427
		c2.732,1.341,4.405,2.511,6.502,4.548c3.109,3.019,5.513,4.106,13.86,6.264c4.394,1.136,7.645,2.651,10.537,4.909
		c2.987,2.333,6.03,4.248,9.579,6.027c3.072,1.54,4.923,2.985,6.015,4.696c0.31,0.486,0.619,3.008,0.789,6.423l0.278,5.623
		l-2.017,2.206c-1.391,1.522-2.527,2.36-3.66,2.699c-0.905,0.271-3.391,1.221-5.525,2.11c-3.477,1.449-4.462,1.67-9.479,2.126
		c-6.146,0.559-6.204,0.553-21.2-2.167c-4.099-0.744-8.503-1.248-12.249-1.402l-5.849-0.24l-1.243,1.416
		c-4.644,5.289-5.111,18.034-0.896,24.397c6.201,9.356,59.672,10.053,71.141,0.926c1.398-1.112,4.287-2.916,6.419-4.008
		c4.633-2.373,6.016-3.607,8.183-7.309c0.902-1.54,3.016-4.24,4.699-6c3.777-3.951,3.679-3.761,4.993-9.6
		c2.836-12.595,1.229-25.796-4.16-34.2c-1.058-1.65-2.381-3.81-2.94-4.8c-1.52-2.69-3.994-5.316-7.006-7.437
		c-1.48-1.043-3.691-2.835-4.914-3.983c-2.632-2.473-4.972-3.726-9.598-5.136c-3.391-1.034-5.085-1.82-12.38-5.739
		c-2.091-1.123-4.956-2.416-6.368-2.874c-7.355-2.384-13.597-6.702-14.934-10.331c-3.513-9.539-2.44-12.527,5.502-15.324
		c1.98-0.697,4.629-1.787,5.889-2.422c3.176-1.602,11.167-1.692,17.352-0.196c2.178,0.527,4.68,1.076,5.56,1.221
		c0.88,0.144,3.399,0.692,5.6,1.218c7.029,1.679,7.093,1.679,8.958-0.006c2.301-2.08,3.186-3.702,4.079-7.483
		c0.431-1.819,1.154-4.439,1.608-5.821c0.921-2.793,0.854-3.411-1.084-9.954c-1.053-3.557-1.877-4.55-5.033-6.063
		C235.587,89.398,212.124,88.111,198.8,89.393"/>
	<path id="path2" fill="#007F00" d="M51.062,17.931c-0.364,0.403-0.651,0.988-0.637,1.3c0.014,0.313,0.193,0.152,0.397-0.357
		c0.223-0.557,0.557-0.811,0.836-0.638c0.277,0.171,0.358,0.114,0.201-0.14c-0.145-0.235-0.038-0.519,0.239-0.63
		c0.287-0.116,0.315-0.216,0.064-0.234C51.921,17.214,51.426,17.529,51.062,17.931 M347.902,17.466
		c0.276,0.111,0.384,0.395,0.238,0.63c-0.156,0.254-0.075,0.311,0.201,0.14c0.279-0.173,0.613,0.081,0.836,0.638
		c0.235,0.586,0.381,0.691,0.397,0.288c0.026-0.68-1.192-1.983-1.807-1.93C347.566,17.249,347.626,17.354,347.902,17.466
		 M50.101,23.4c0.004,0.88,0.086,1.193,0.182,0.695c0.096-0.497,0.092-1.217-0.008-1.6C50.175,22.113,50.096,22.52,50.101,23.4
		 M349.701,23.4c0.004,0.88,0.086,1.193,0.182,0.695c0.096-0.497,0.092-1.217-0.008-1.6C349.775,22.113,349.696,22.52,349.701,23.4
		 M50.4,314.752c0,0.39,1.555,1.846,1.723,1.611c0.064-0.09-0.297-0.562-0.803-1.05C50.814,314.827,50.4,314.575,50.4,314.752
		 M348.514,315.48c-0.486,0.506-0.739,0.92-0.562,0.92c0.39,0,1.846-1.555,1.612-1.724
		C349.474,314.613,349.001,314.974,348.514,315.48 M53.483,316.321c-2.66,0.534,3.54,8.079,6.639,8.079
		c0.305,0,0.872,0.353,1.261,0.781c0.752,0.831,4.533,1.87,5.463,1.502c0.305-0.121,0.053-0.233-0.559-0.251
		c-1.897-0.055-6.621-2.816-4.849-2.836c0.199-0.002-0.548-0.428-1.66-0.945c-2.149-1.001-4.807-3.738-5.288-5.445
		C54.291,316.5,53.975,316.222,53.483,316.321 M345.468,317.148c-0.333,1.647-3.019,4.466-5.246,5.503
		c-1.111,0.518-1.858,0.943-1.659,0.945c1.771,0.02-2.952,2.781-4.85,2.836c-0.612,0.018-0.864,0.13-0.559,0.251
		c0.93,0.368,4.711-0.671,5.463-1.502c0.389-0.429,0.956-0.781,1.261-0.781c3.173,0,9.191-7.418,6.574-8.103
		C345.865,316.144,345.63,316.348,345.468,317.148 M54.8,316.625c0,1.095,3.127,4.688,4.88,5.607
		c1.344,0.706,1.382,0.704,1.673-0.054c0.131-0.341,0.082-0.524-0.108-0.407c-0.567,0.352-3.551-2.047-4.69-3.77
		C55.623,316.595,54.8,315.95,54.8,316.625 M57.438,317.814c0.951,1.247,2.968,2.985,3.463,2.985c0.097,0-0.813-0.989-2.023-2.199
		C56.328,316.049,55.924,315.829,57.438,317.814 M340.955,318.659c-1.124,1.178-1.962,2.141-1.861,2.141
		c0.499,0,2.513-1.732,3.469-2.985C344.132,315.756,343.315,316.185,340.955,318.659 M343.445,318.002
		c-1.14,1.723-4.123,4.121-4.69,3.77c-0.189-0.117-0.239,0.066-0.107,0.407c0.525,1.37,4.672-1.653,6.105-4.453
		C345.775,315.729,344.816,315.932,343.445,318.002 M70,326.84c-0.99,0.132,11.61,0.23,28,0.219s28.45-0.072,26.8-0.135
		C118.496,326.684,71.713,326.612,70,326.84 M298.8,326.799l-26.6,0.209l29.8,0.043c16.39,0.023,28.9-0.098,27.8-0.27
		c-1.1-0.172-2.54-0.285-3.2-0.25C325.94,326.564,313.43,326.685,298.8,326.799 M263.45,330.102
		c-1.513,1.553-2.233,2.451-1.601,1.996c1.113-0.803,3.035-2.76,4.121-4.198C266.919,326.642,266.246,327.23,263.45,330.102
		 M269.098,328.047c0.635,2.438-5.011,8.084-7.447,7.451c-0.484-0.127-0.661,0.129-0.694,1c-0.024,0.643,0.065,1,0.2,0.793
		c0.134-0.207,0.955-0.508,1.824-0.668c4.08-0.75,6.492-3.16,7.242-7.238c0.161-0.871,0.461-1.695,0.668-1.829
		c0.207-0.136-0.149-0.226-0.793-0.2C269.229,327.389,268.973,327.566,269.098,328.047 M262.473,329.025
		c-0.729,0.776-1.264,1.603-1.185,1.838c0.166,0.5,2.543-1.399,3.135-2.506C265.114,327.067,263.936,327.47,262.473,329.025
		 M266.479,329.597c-1.209,1.946-4.619,4.61-5.332,4.17c-0.186-0.115-0.231,0.065-0.103,0.401c0.526,1.373,4.726-1.646,6.291-4.521
		C268.768,327.016,268.107,326.977,266.479,329.597 M139.867,335.868c-0.584,0.584,0.47,2.133,1.451,2.133
		c0.253,0,0.048-0.289-0.456-0.643c-0.505-0.354-0.82-0.891-0.701-1.199C140.393,335.551,140.287,335.447,139.867,335.868
		 M142.764,338.032c-0.411,0.26-0.265,0.357,0.536,0.362c1.194,0.007,1.41-0.19,0.564-0.515
		C143.569,337.767,143.074,337.834,142.764,338.032 M259.893,341.857c-0.558,4.702-2.269,6.261-7.468,6.804
		c-1.347,0.141-2.524,0.375-2.614,0.522c-0.226,0.364,5.263-0.366,6.975-0.929c2.271-0.746,4.355-5.432,3.525-7.924
		C260.214,340.042,260.025,340.728,259.893,341.857 M150.109,342c0,0.99,0.078,1.395,0.173,0.899c0.096-0.495,0.096-1.305,0-1.8
		C150.187,340.605,150.109,341.01,150.109,342 M150.446,346.9c-0.053,0.804,1.311,2.313,2.054,2.272
		c0.275-0.014,0.088-0.226-0.417-0.469c-0.529-0.254-0.827-0.674-0.704-0.992c0.116-0.305,0.048-0.451-0.153-0.328
		c-0.201,0.125-0.448-0.09-0.549-0.479C150.503,346.239,150.49,346.239,150.446,346.9 M249.124,354.6c0.09,0.77,0.233,1.4,0.319,1.4
		s0.156-0.631,0.156-1.4s-0.144-1.4-0.32-1.4C249.104,353.2,249.034,353.831,249.124,354.6 M248.52,357.606
		c-0.283,0.752-0.955,1.423-1.787,1.784c-1.039,0.45-1.145,0.582-0.477,0.594c1.155,0.021,2.453-1.142,2.77-2.483
		C249.372,356.04,249.089,356.099,248.52,357.606 M161.625,358.438c-0.03,0.77,1.216,1.973,2.006,1.938
		c0.313-0.015,0.16-0.19-0.34-0.392c-0.501-0.2-1.074-0.774-1.275-1.274C161.781,358.124,161.642,358.027,161.625,358.438
		 M242.604,360.006c0.135,0.217,0.804,0.394,1.486,0.394c1.512,0,1.359-0.2-0.41-0.537
		C242.855,359.706,242.452,359.76,242.604,360.006 M165.436,360.458c0.116,0.188,1.221,0.342,2.454,0.342
		c1.234,0,2.162-0.082,2.062-0.18C169.607,360.273,165.225,360.118,165.436,360.458 M238.509,364.4c0,0.99,0.078,1.396,0.173,0.899
		c0.096-0.494,0.096-1.305,0-1.799C238.587,363.004,238.509,363.411,238.509,364.4 M172.534,368.999
		c0.234,1.512,1.105,2.617,2.042,2.59c0.233-0.008,0.105-0.198-0.284-0.426c-0.39-0.227-0.587-0.608-0.439-0.849
		c0.162-0.263,0.086-0.323-0.191-0.151c-0.478,0.295-0.5,0.25-0.659-1.275c-0.052-0.502-0.235-1.042-0.406-1.2
		C172.427,367.529,172.398,368.12,172.534,368.999 M236.855,370.434c-0.52,0.421-0.778,0.766-0.576,0.766
		c0.535,0,1.955-1.1,1.72-1.332C237.891,369.758,237.375,370.013,236.855,370.434 M175.777,371.638
		c-0.123,0.198,0.236,0.362,0.799,0.362c1.226,0,1.325-0.229,0.224-0.517C176.361,371.37,175.9,371.438,175.777,371.638
		 M178,372.144c0,0.739,2.862,3.94,4.131,4.619c0.588,0.315,1.099,0.995,1.196,1.593c0.1,0.614,0.163,0.385,0.153-0.557
		c-0.01-0.879,0.051-1.779,0.134-2c0.445-1.174-0.445-3.799-1.288-3.799h-0.865l0.938,0.998c0.515,0.549,0.841,1.096,0.722,1.213
		c-0.118,0.119-0.773-0.42-1.456-1.198C180.367,371.536,178,370.973,178,372.144 M226.654,380.596
		c0.134,0.35,0.087,0.584-0.105,0.52c-0.191-0.064-0.379,0.045-0.415,0.239c-0.036,0.196-0.306,0.508-0.6,0.694
		c-0.356,0.226-0.377,0.341-0.063,0.345c1.084,0.015,2.127-1.701,1.334-2.19C226.576,380.061,226.512,380.227,226.654,380.596
		 M183.6,380.679c0,0.536,1.1,1.954,1.333,1.72c0.109-0.109-0.146-0.624-0.567-1.143C183.945,380.736,183.6,380.477,183.6,380.679"
		/>
	<path id="path3" fill="#4CAE22" d="M55.535,16.998c-0.171,0.171-1.404,0.372-3.421,0.557c-0.647,0.06-1.35,1.43-1.643,3.203
		c-0.39,2.361-0.52,285.864-0.132,290.174c0.443,4.931,0.687,5.213,4.708,5.441c0.246,0.016,0.924,0.748,1.508,1.629
		c1.139,1.723,4.123,4.121,4.69,3.77c0.19-0.117,0.251,0.035,0.134,0.338c-0.67,1.746,2.077,4.194,4.164,3.71
		c0.83-0.192,0.928-0.149,0.457,0.194c-0.466,0.34-0.271,0.406,0.872,0.295c0.81-0.078,1.396-0.02,1.303,0.132
		c-0.093,0.149,12.114,0.294,27.128,0.319c27.817,0.047,43.076,0.32,43.576,0.781c0.229,0.213,0.502,2.944,0.734,7.358
		c0.02,0.386,0.2,0.7,0.399,0.7c0.2,0,0.27,0.24,0.157,0.535c-0.476,1.242,1.121,1.736,6.817,2.111
		c3.216,0.213,3.393,0.385,3.428,3.354c0.084,7.072,0.401,7.432,6.893,7.814c4.394,0.26,3.862-0.287,4.1,4.224
		c0.349,6.6,0.322,6.579,9.293,6.845c0.935,0.027,1.723,0.245,1.751,0.484c0.028,0.238,0.099,1.873,0.156,3.633
		c0.199,6.081,0.682,6.865,4.272,6.938c6.712,0.133,6.694,0.115,6.844,6.148c0.129,5.188-1.232,4.878,21.376,4.861
		c21.323-0.016,22.264-0.103,21.555-1.951c-0.115-0.299-0.038-0.602,0.172-0.672c0.21-0.069,0.486-1.926,0.613-4.125
		c0.277-4.775-0.32-4.135,4.072-4.36c3.946-0.202,5.922-0.862,5.834-1.952c-0.031-0.378,0.129-0.564,0.362-0.42
		c0.265,0.163,0.335-0.061,0.192-0.604c-0.125-0.476-0.062-0.863,0.137-0.863s0.365-1.035,0.367-2.301
		c0.009-4.666,0.214-5.119,2.232-4.959c1.078,0.086,1.764-0.027,1.764-0.291c0-0.258,0.449-0.34,1.127-0.203
		c2.386,0.477,5.649-1.959,5.156-3.848c-0.117-0.447-0.043-0.697,0.168-0.566c0.209,0.129,0.371-0.362,0.36-1.1
		c-0.009-0.732,0.119-2.215,0.285-3.295l0.303-1.961l3.224-0.643c5.111-1.018,6.619-2.652,6.724-7.291
		c0.028-1.285,0.174-2.338,0.321-2.34c0.399-0.006,1.226-2.727,0.959-3.158c-0.125-0.204,0.109-0.282,0.522-0.174
		c2.586,0.676,8.197-4.938,7.521-7.524c-0.107-0.411-0.036-0.649,0.158-0.53c0.193,0.121,1.032,0.037,1.862-0.185
		c0.942-0.252,12.677-0.424,31.208-0.458c16.334-0.029,29.622-0.178,29.528-0.33s0.491-0.213,1.301-0.135
		c1.144,0.111,1.338,0.045,0.872-0.295c-0.471-0.344-0.373-0.387,0.457-0.194c2.087,0.484,4.834-1.964,4.164-3.71
		c-0.117-0.303-0.056-0.455,0.134-0.338c0.567,0.352,3.551-2.047,4.69-3.77c0.584-0.881,1.262-1.613,1.508-1.629
		c4.021-0.229,4.265-0.511,4.708-5.441c0.388-4.311,0.258-287.813-0.132-290.174c-0.293-1.77-0.995-3.141-1.644-3.209
		c-0.267-0.028-0.936-0.151-1.485-0.273C345.152,17,55.81,16.723,55.535,16.998 M223,89.202c17.188,1.072,20.531,2.348,22.361,8.531
		c1.938,6.543,2.005,7.161,1.084,9.954c-0.454,1.382-1.178,4.002-1.608,5.821c-0.894,3.781-1.778,5.403-4.079,7.483
		c-1.865,1.685-1.929,1.685-8.958,0.006c-2.2-0.526-4.72-1.074-5.6-1.218c-0.88-0.145-3.382-0.694-5.56-1.221
		c-6.185-1.496-14.176-1.406-17.352,0.196c-1.26,0.635-3.909,1.725-5.889,2.422c-7.942,2.797-9.015,5.785-5.502,15.324
		c1.337,3.629,7.579,7.947,14.934,10.331c1.412,0.458,4.277,1.751,6.368,2.874c7.295,3.919,8.989,4.705,12.38,5.739
		c4.626,1.41,6.966,2.663,9.598,5.136c1.223,1.148,3.434,2.94,4.914,3.983c3.012,2.121,5.486,4.747,7.006,7.437
		c0.56,0.99,1.883,3.15,2.94,4.8c5.39,8.404,6.996,21.605,4.16,34.2c-1.314,5.839-1.216,5.649-4.993,9.6
		c-1.684,1.76-3.797,4.46-4.699,6c-2.167,3.701-3.55,4.936-8.183,7.309c-2.132,1.092-5.021,2.896-6.419,4.008
		c-9.659,7.687-58.104,8.738-68.854,1.494c-6.192-4.172-7.034-20.391-1.392-26.817l1.243-1.416l5.849,0.24
		c3.746,0.154,8.15,0.658,12.249,1.402c14.996,2.72,15.054,2.726,21.2,2.167c5.018-0.456,6.003-0.677,9.479-2.126
		c2.135-0.889,4.62-1.839,5.525-2.11c1.133-0.339,2.27-1.177,3.66-2.699l2.017-2.206l-0.278-5.623
		c-0.17-3.415-0.479-5.937-0.789-6.423c-1.092-1.711-2.942-3.156-6.015-4.696c-3.549-1.779-6.592-3.694-9.579-6.027
		c-2.892-2.258-6.143-3.773-10.537-4.909c-8.347-2.158-10.751-3.245-13.86-6.264c-2.097-2.037-3.77-3.207-6.502-4.548
		c-4.171-2.048-6.357-4.032-8.182-7.427c-0.672-1.25-2.369-3.547-3.772-5.105c-4.155-4.612-5.257-8.134-5.644-18.024
		c-0.486-12.458,1.554-20.282,6.38-24.475c1.326-1.152,2.905-3.178,4.296-5.513c2.515-4.221,3.554-5.15,8.735-7.811
		c2.055-1.055,4.767-2.78,6.028-3.834C187.456,89.909,201.721,87.875,223,89.202 M58.878,318.6c2.342,2.341,2.519,2.68,0.742,1.414
		c-0.996-0.709-3.489-3.614-3.101-3.614C56.606,316.4,57.668,317.39,58.878,318.6 M342.562,317.814
		c-0.956,1.253-2.97,2.985-3.469,2.985c-0.293,0,3.872-4.278,4.227-4.342C343.497,316.426,343.155,317.036,342.562,317.814
		 M265.971,327.9c-1.086,1.438-3.008,3.396-4.121,4.198c-0.633,0.455,0.088-0.443,1.601-1.996
		C266.246,327.23,266.919,326.642,265.971,327.9 M264.423,328.357c-0.592,1.106-2.969,3.006-3.135,2.506
		c-0.181-0.538,2.336-3.245,3.026-3.256C264.695,327.602,264.723,327.795,264.423,328.357 M267.335,329.648
		c-1.565,2.875-5.765,5.894-6.291,4.521c-0.129-0.336-0.083-0.517,0.103-0.401c0.713,0.44,4.123-2.224,5.332-4.17
		C268.107,326.977,268.768,327.016,267.335,329.648"/>
	<path id="path4" fill="#00FF00" d="M50.976,17.373c-0.661,0.488-0.693,0.651-0.217,1.1c0.307,0.29,0.444,0.322,0.304,0.072
		c-0.309-0.552,0.746-1.51,1.292-1.173c0.214,0.133,0.503,0.058,0.641-0.165C53.375,16.594,51.863,16.719,50.976,17.373
		 M347.004,17.207c0.138,0.223,0.427,0.298,0.641,0.165c0.547-0.337,1.602,0.621,1.293,1.173c-0.141,0.25-0.004,0.218,0.304-0.072
		c0.476-0.449,0.443-0.612-0.217-1.1C348.137,16.719,346.625,16.594,347.004,17.207 M50,20.576C50,21.359,50.07,22,50.155,22
		c0.328,0,0.494-2.446,0.178-2.641C50.15,19.245,50,19.793,50,20.576 M349.495,19.5c-0.084,0.165-0.026,0.84,0.129,1.5
		c0.277,1.18,0.282,1.175,0.329-0.3C349.998,19.276,349.831,18.838,349.495,19.5 M50,313.2c0,0.66,0.149,1.2,0.331,1.2
		s0.251-0.54,0.154-1.2c-0.097-0.66-0.245-1.199-0.33-1.199C50.07,312,50,312.54,50,313.2 M349.515,313.2
		c-0.097,0.66-0.027,1.2,0.154,1.2s0.331-0.54,0.331-1.2S349.93,312,349.845,312S349.612,312.54,349.515,313.2 M50.4,315.551
		c0,0.261,0.247,0.568,0.549,0.685c0.302,0.116,0.663,1.046,0.803,2.068c0.603,4.399,2.573,6.474,7.119,7.493
		c1.391,0.311,3.249,0.75,4.129,0.975c1.992,0.51,5.525,0.555,5.224,0.066c-0.123-0.199-0.989-0.275-1.924-0.168
		c-0.992,0.113-1.501,0.052-1.223-0.147c0.295-0.211-0.115-0.341-1.078-0.341c-1.056,0-1.858-0.285-2.502-0.891
		c-0.522-0.49-1.183-0.892-1.469-0.892c-2.27,0-5.901-3.549-6.841-6.687c-0.278-0.928-0.67-1.586-0.872-1.461
		c-0.201,0.125-0.714-0.09-1.14-0.476C50.704,315.352,50.4,315.262,50.4,315.551 M348.793,315.809
		c-0.287,0.345-0.738,0.544-1.004,0.441c-0.29-0.11-0.682,0.481-0.982,1.482c-0.934,3.119-4.571,6.667-6.835,6.667
		c-0.286,0-0.946,0.401-1.469,0.892c-0.644,0.605-1.446,0.891-2.502,0.891c-0.963,0-1.373,0.13-1.078,0.341
		c0.278,0.199-0.23,0.261-1.223,0.147c-0.936-0.107-1.801-0.031-1.924,0.168c-0.302,0.488,3.231,0.443,5.224-0.066
		c0.88-0.225,2.738-0.664,4.129-0.975c4.513-1.012,6.43-3.004,7.119-7.397c0.156-0.989,0.568-2.01,0.917-2.267
		c0.348-0.258,0.525-0.577,0.391-0.711C349.423,315.29,349.08,315.463,348.793,315.809 M54.416,316.811
		c-0.047,1.805,5.684,7.223,6.636,6.271c0.095-0.097-0.345-0.39-0.979-0.652c-1.364-0.564-4.121-3.333-5.012-5.03
		C54.715,316.741,54.425,316.475,54.416,316.811 M345.014,317.17c-0.435,1.353-3.602,4.645-5.042,5.242
		c-0.659,0.271-1.119,0.573-1.023,0.67c1.008,1.006,7.061-4.879,6.552-6.369C345.401,316.42,345.191,316.618,345.014,317.17
		 M271.346,327.268c-0.578,0.279-0.941,0.938-1.113,2.016c-0.654,4.098-3.26,6.695-7.371,7.354c-1.44,0.23-2.432,1.125-1.87,1.688
		c0.114,0.114,0.209,0.02,0.209-0.212s1.034-0.544,2.3-0.694c4.922-0.588,6.883-2.521,7.516-7.412
		c0.166-1.273,0.558-2.398,0.935-2.687C272.73,326.725,272.506,326.706,271.346,327.268 M134.482,327.493l4.282,0.133l0.145,2.487
		l0.146,2.487l-0.028-2.6L139,327.4l-4.4-0.021l-4.4-0.019L134.482,327.493 M139.2,336.377c0,0.428,0.4,1.058,0.889,1.399
		c0.972,0.681,2.501,0.854,2.122,0.24c-0.13-0.21-0.478-0.29-0.772-0.177c-0.702,0.27-1.945-0.987-1.675-1.692
		c0.116-0.301,0.037-0.548-0.177-0.548C139.374,335.6,139.2,335.95,139.2,336.377 M260.175,341.7
		c-0.042,4.809-1.694,6.844-5.587,6.881c-1.16,0.01-1.902,0.151-1.648,0.313c1.726,1.101,6.416-0.205,7.094-1.976
		c0.561-1.469,0.992-8.119,0.525-8.119C260.361,338.799,260.189,340.105,260.175,341.7 M150,345.224
		c0,0.894,0.145,1.534,0.323,1.424c0.309-0.192,0.154-3.048-0.167-3.048C150.07,343.6,150,344.331,150,345.224 M150.432,348.11
		c-0.034,0.746,1.395,1.49,2.861,1.49c1.079,0,0.619-0.479-0.58-0.604c-1.526-0.158-1.57-0.181-1.275-0.658
		c0.169-0.273,0.111-0.354-0.142-0.197c-0.235,0.145-0.519,0.038-0.63-0.239C150.545,347.603,150.45,347.687,150.432,348.11
		 M249.822,349.7c-0.414,1.35-0.528,3.512-0.196,3.717c0.213,0.131,0.374-0.631,0.374-1.769v-2l1.5-0.157l1.5-0.156l-1.514-0.067
		C250.575,349.227,249.914,349.398,249.822,349.7 M249.042,356.625c0.183,0.724,0.132,1.006-0.146,0.834
		c-0.26-0.16-0.346,0.033-0.222,0.506c0.25,0.953-1.518,2.222-2.676,1.918c-0.438-0.114-0.799-0.045-0.799,0.154
		c0,0.787,2.457,0.342,3.418-0.619c1.016-1.016,1.348-3.146,0.565-3.629C248.912,355.622,248.863,355.911,249.042,356.625
		 M161.778,359.235c-0.44,0.713,0.53,1.419,1.122,0.816c0.401-0.407,0.381-0.483-0.1-0.381c-0.33,0.072-0.555-0.096-0.5-0.371
		C162.423,358.684,162.14,358.649,161.778,359.235 M240.6,360.4l-2,0.274l2.101,0.062c1.175,0.035,2.1-0.113,2.1-0.337
		c0-0.22-0.045-0.372-0.1-0.337C242.645,360.097,241.7,360.249,240.6,360.4 M238.307,366.974c-0.102,0.536-0.035,1.211,0.147,1.5
		c0.213,0.335,0.336-0.019,0.34-0.974C238.801,365.786,238.58,365.547,238.307,366.974 M237.844,369.769
		c0.238,0.621-1.222,1.614-1.824,1.243c-0.201-0.124-0.478-0.042-0.615,0.181c-0.328,0.532,1.226,0.526,2.222-0.007
		c0.788-0.422,1.092-1.986,0.388-1.986C237.799,369.2,237.723,369.456,237.844,369.769 M173.376,371.42
		c0.428,0.318,0.993,0.58,1.257,0.58c0.264,0,0.602,0.494,0.751,1.1c0.753,3.059,4.61,6.855,7.016,6.904
		c0.33,0.008,0.87,0.594,1.2,1.305c0.383,0.824,0.942,1.339,1.544,1.425c0.579,0.081,0.845-0.028,0.688-0.282
		c-0.142-0.229-0.504-0.322-0.804-0.207c-0.926,0.355-1.51-1.265-1.564-4.338c-0.014-0.82-0.155-1.283-0.313-1.027
		c-0.527,0.853-5.151-3.422-5.151-4.762c0-0.224-0.409-0.328-0.909-0.232c-0.5,0.095-1.715-0.1-2.7-0.436
		C172.885,370.938,172.724,370.934,173.376,371.42 M228.707,371.89c0.719,0.089,1.799,0.087,2.4-0.005
		c0.601-0.09,0.013-0.163-1.308-0.161C228.48,371.726,227.988,371.801,228.707,371.89 M181.796,373.196
		c0.63,0.658,1.235,1.107,1.343,0.998c0.264-0.264-1.569-2.193-2.084-2.193C180.833,372,181.166,372.538,181.796,373.196
		 M227.2,379.799c-0.052,0.221-0.134,0.58-0.185,0.801c-0.052,0.22-0.121,0.609-0.154,0.867c-0.034,0.256-0.557,0.646-1.161,0.867
		c-0.987,0.36-1.009,0.406-0.209,0.434c1.046,0.038,2.264-1.585,1.989-2.648C227.377,379.724,227.251,379.581,227.2,379.799
		 M201.721,383.098c1.934,0.074,4.994,0.072,6.799-0.001c1.805-0.074,0.221-0.134-3.52-0.134S199.784,383.025,201.721,383.098"/>
</g>
</svg>
