<?xml version="1.0" encoding="utf-8"?>
<!-- Generator: Adobe Illustrator 16.0.0, SVG Export Plug-In . SVG Version: 6.00 Build 0)  -->
<!DOCTYPE svg PUBLIC "-//W3C//DTD SVG 1.1//EN" "http://www.w3.org/Graphics/SVG/1.1/DTD/svg11.dtd">
<svg version="1.1" id="svg" xmlns="http://www.w3.org/2000/svg" xmlns:xlink="http://www.w3.org/1999/xlink" x="0px" y="0px"
	 width="330px" height="393.955px" viewBox="46.5 0 330 393.955" enable-background="new 46.5 0 330 393.955" xml:space="preserve">
<g id="svgg">
	<path id="path0" fill="#E01600" d="M368.463,328.306c-0.59,2.301-1.982,3.817-4.275,4.656c-0.872,0.32-1.356,0.594-1.074,0.609
		c2.769,0.152,6.803-4.424,6.006-6.814C369.038,326.515,368.743,327.212,368.463,328.306 M54.436,327.399
		c-0.05,2.187,2.794,5.797,4.564,5.797c0.22,0-0.14-0.334-0.8-0.74c-1.749-1.081-2.596-2.17-3.206-4.124
		C54.697,327.38,54.445,326.96,54.436,327.399 M90.93,335.101c8.321,0.06,21.821,0.06,30,0c8.178-0.062,1.37-0.11-15.13-0.11
		S82.608,335.039,90.93,335.101 M303.1,335.101c8.195,0.06,21.605,0.06,29.801,0c8.194-0.062,1.489-0.11-14.9-0.11
		C301.609,334.99,294.904,335.039,303.1,335.101 M286.045,342.843c-0.35,0.791-1.148,1.528-2.197,2.027
		c-1.396,0.665-1.465,0.748-0.447,0.543c1.295-0.262,3.399-2.254,3.399-3.219C286.8,341.331,286.661,341.451,286.045,342.843
		 M276.9,346.276c0.385,0.1,1.015,0.1,1.399,0c0.386-0.102,0.07-0.184-0.7-0.184C276.83,346.093,276.516,346.175,276.9,346.276
		 M176.648,370.899c0.971,1.645,2.51,3.309,4.021,4.349l1.731,1.19v-3.02v-3.02h-3.024
		C177.067,370.399,176.423,370.519,176.648,370.899 M184.4,382.526c0,1.562,1.411,4.904,2.648,6.273
		c1.285,1.424,2.086,1.835,6,3.092c2.197,0.705,1.182-0.822-1.08-1.625c-3.261-1.158-5.237-3.451-6.524-7.566
		C185.189,381.884,184.4,381.754,184.4,382.526"/>
	<path id="path1" fill="#FFFFFF" d="M210.8,97.61c-6.583,0.811-10.235,1.835-11.833,3.316c-0.605,0.56-2.015,1.507-3.133,2.103
		c-1.119,0.597-2.394,1.399-2.834,1.784c-1.35,1.18-5.421,3.17-8.228,4.023c-3.118,0.947-4.387,2.122-5.314,4.92
		c-1.251,3.779-3.101,6.118-7.784,9.844c-4.406,3.505-5.32,32.219-1.134,35.617c0.253,0.205,1.254,0.96,2.225,1.678
		c2.219,1.641,4.205,4.507,5.108,7.371c0.86,2.728,3.67,5.489,6.019,5.915c3.711,0.673,7.468,3.164,9.727,6.446
		c1.304,1.896,5.951,3.717,15.181,5.951c5.279,1.277,8.576,2.887,11.548,5.637c1.28,1.186,4.562,3.436,7.291,5.001
		c8.258,4.733,8.774,5.557,9.125,14.542c0.385,9.862-1.267,12.245-10.992,15.852c-2.244,0.833-4.977,2.131-6.072,2.884
		c-2.062,1.419-4.242,1.901-11.499,2.542c-3.459,0.306-12.91-1.871-14.756-3.399c-3.031-2.506-22.41-3.223-23.625-0.874
		c-1.022,1.976-2.386,12.029-1.886,13.899c1.168,4.375,2.228,5.97,4.723,7.112c1.289,0.59,3.154,1.58,4.144,2.203
		c7.907,4.967,47.677,5.34,57,0.534c1.101-0.567,3.269-1.679,4.82-2.471c1.552-0.793,3.353-1.823,4-2.29
		c1.853-1.335,5.812-3.223,8.235-3.926c2.664-0.775,4.056-2.125,4.967-4.819c0.369-1.096,1.253-2.896,1.96-4
		c1.183-1.843,1.892-2.549,5.739-5.718c5.155-4.246,5.348-32.309,0.254-37.055c-1.979-1.843-3.993-5.082-4.951-7.961
		c-0.971-2.919-4.018-6.237-7.225-7.871c-2.582-1.315-4.149-2.597-5.426-4.439c-1.531-2.211-3.707-3.37-8.122-4.332
		c-2.062-0.448-4.762-1.283-6-1.854c-1.239-0.572-3.062-1.316-4.052-1.655c-2.852-0.976-6.295-2.83-7.912-4.262
		c-0.87-0.77-2.65-1.697-4.288-2.234c-9.12-2.986-15.055-7.733-16.365-13.088c-2.98-12.18-1.531-15.21,9.342-19.536
		c2.078-0.827,4.058-1.823,4.399-2.213c0.343-0.39,1.415-1.267,2.384-1.949l1.76-1.239h6.277c6.82,0,8.178,0.28,13.004,2.684
		c1.324,0.659,4.907,1.774,7.998,2.49c3.08,0.712,6.23,1.463,7,1.667c2.086,0.552,3.782-1.536,4.416-5.436
		c0.25-1.543,0.813-4.155,1.252-5.805c1.014-3.812,1.022-3.658-0.49-8.075c-1.894-5.533-2.938-7.412-4.266-7.682
		C240.463,96.998,222.262,96.198,210.8,97.61"/>
	<path id="path2" fill="#7F0000" d="M53.817,7.172C53.523,7.648,54.272,8.126,54.8,7.8c0.22-0.136,0.386-0.462,0.368-0.724
		c-0.022-0.343-0.087-0.337-0.233,0.024c-0.111,0.275-0.377,0.5-0.592,0.5c-0.215,0-0.279-0.18-0.143-0.4
		c0.136-0.22,0.157-0.4,0.047-0.4S53.944,6.968,53.817,7.172 M56.139,323.414c-0.849,2.214,3.82,7.674,7.198,8.416
		c0.689,0.151,1.48,0.565,1.758,0.922c0.455,0.582,0.481,0.574,0.252-0.081c-0.14-0.4-1.176-1.137-2.301-1.637
		c-3.471-1.541-7.387-6.311-6.439-7.846c0.132-0.213,0.134-0.389,0.004-0.389C56.481,322.8,56.269,323.076,56.139,323.414
		 M366.934,323.05c0.903,1.616-3.185,6.624-6.615,8.104c-0.945,0.41-2.077,1.172-2.516,1.695l-0.797,0.951l0.997-0.832
		c0.548-0.458,1.774-1.053,2.723-1.324c3.39-0.965,8.04-7.115,6.478-8.562C366.877,322.78,366.777,322.769,366.934,323.05
		 M58,323.416c0,1.378,2.698,4.618,5,6.002c0.66,0.397,1.806,1.366,2.546,2.151c0.74,0.787,1.123,1.115,0.851,0.73
		c-0.285-0.402-0.325-0.699-0.095-0.699c0.581,0,1.341,1.023,1.007,1.357c-0.157,0.156,0.043,0.159,0.444,0.005
		c0.648-0.249,0.595-0.383-0.481-1.226c-0.665-0.521-1.528-1.78-1.917-2.799c-0.666-1.744-4.129-5.738-4.974-5.738
		c-0.917,0-0.211,1.14,2.019,3.262c2.379,2.264,2.733,2.738,2.043,2.738c-0.628,0-4.455-3.662-5.07-4.852
		C58.86,323.354,58,322.772,58,323.416 M360.789,325.126c-0.996,1.031-2.135,2.727-2.531,3.77s-1.265,2.321-1.93,2.842
		c-0.951,0.744-1.078,0.996-0.594,1.182c0.742,0.286,2.521-1.035,2.868-2.129c0.139-0.436,0.465-0.794,0.725-0.8
		c1.012-0.021,4.274-2.853,5.296-4.595c1.115-1.901,0.978-3.158-0.152-1.396c-1.106,1.728-6.07,6.296-6.07,5.588
		c0-0.226,1.17-1.563,2.6-2.973s2.6-2.755,2.6-2.989C363.6,322.747,362.543,323.312,360.789,325.126 M65.972,331.399
		c0,0.221-0.258-0.049-0.572-0.6c-0.314-0.55-0.572-1.18-0.572-1.4c0-0.219,0.258,0.051,0.572,0.601S65.972,331.181,65.972,331.399
		 M358.023,331.157c-0.243,0.453-0.842,1.039-1.329,1.3c-0.752,0.401-0.704,0.259,0.309-0.929
		C358.303,330.004,358.722,329.851,358.023,331.157 M69.2,333.831l-1,0.602l1-0.265c1.452-0.384,2.403-0.944,1.6-0.942
		C70.47,333.228,69.75,333.499,69.2,333.831 M352.8,333.563c0.33,0.187,1.05,0.459,1.601,0.604l1,0.265l-1-0.602
		c-0.551-0.332-1.271-0.604-1.601-0.605C352.267,333.226,352.267,333.263,352.8,333.563 M72.098,334.101
		c0.091,0.274,0.592,0.562,1.114,0.637c0.829,0.121,0.882,0.059,0.42-0.5C73.005,333.483,71.861,333.38,72.098,334.101 M350,334.2
		c-0.302,0.363-0.334,0.6-0.082,0.6c0.735,0,1.682-0.475,1.682-0.843C351.6,333.385,350.543,333.545,350,334.2 M90.5,334.3
		c8.305,0.061,21.895,0.061,30.2,0c8.305-0.061,1.51-0.109-15.1-0.109S82.195,334.239,90.5,334.3 M287.861,334.3
		c-0.168,0.271,20.985,0.27,49.139-0.007c5.94-0.06-2.644-0.147-19.076-0.2C301.492,334.042,287.964,334.135,287.861,334.3
		 M284.279,335.181c0.484,1.851-2.771,5.871-5.924,7.317c-2.742,1.258-2.801,2.028-0.069,0.917c4.31-1.754,8.753-7.824,6.389-8.73
		C284.264,334.526,284.146,334.672,284.279,335.181 M278.462,337.051c-1.176,1.22-1.804,2.039-1.396,1.82
		c0.828-0.442,4.246-4.08,3.811-4.056C280.725,334.825,279.639,335.831,278.462,337.051 M285.729,336.194
		c-0.185,3.623-3.207,6.924-7.405,8.091c-2.181,0.606-3.138,1.411-2.296,1.932c0.216,0.134,0.343,0.026,0.283-0.239
		c-0.065-0.281,1.049-0.842,2.689-1.354c3.76-1.171,4.799-1.93,5.979-4.363c1.057-2.185,1.762-5.462,1.172-5.459
		C285.958,334.804,285.768,335.431,285.729,336.194 M277.404,336.396c-0.631,0.658-1.057,1.285-0.947,1.395s0.807-0.43,1.549-1.196
		c0.743-0.767,1.169-1.394,0.947-1.394C278.73,335.2,278.034,335.737,277.404,336.396 M282.421,336.349
		c-0.622,1.502-3.354,4.244-4.845,4.861c-0.646,0.268-1.176,0.738-1.176,1.044c0,0.746,2.351-0.213,4.136-1.687
		c1.144-0.945,3.453-4.326,3.461-5.067C284.005,334.707,282.841,335.334,282.421,336.349 M148.121,344.28
		c0.563,0.146,0.621,0.308,0.265,0.736c-0.367,0.442-0.293,0.52,0.378,0.391c0.46-0.09,0.836,0.039,0.836,0.283
		s0.119,0.324,0.264,0.179c0.395-0.394-1.09-1.876-1.826-1.823C147.54,344.083,147.558,344.134,148.121,344.28 M274.8,347.194
		c0,0.255,0.286,0.748,0.636,1.099c0.582,0.582,0.625,0.558,0.5-0.297C275.798,347.05,274.8,346.347,274.8,347.194 M274.033,350.821
		c-0.639,2.494-2.547,4.541-4.887,5.242c-1.621,0.485-1.637,0.506-0.623,0.845c2.666,0.889,6.625-2.761,6.082-5.607l-0.211-1.101
		l0.613,1.199l0.612,1.201l-0.256-1.4C274.922,348.778,274.582,348.681,274.033,350.821 M273.734,353.662
		c-0.91,1.555-2.362,2.634-3.935,2.922l-1.2,0.222l1.2-0.461c2.048-0.783,3.336-1.91,3.869-3.385
		c0.282-0.779,0.577-1.223,0.656-0.984C274.404,352.213,274.139,352.972,273.734,353.662 M274.264,354.979
		c-0.131,0.34-0.828,0.977-1.551,1.416c-0.722,0.441-1.091,0.803-0.818,0.804c0.664,0.002,3.172-2.267,2.854-2.583
		C274.611,354.478,274.393,354.642,274.264,354.979 M159.803,356.795c-0.146,0.236,0.035,0.289,0.446,0.131
		c0.554-0.213,0.632-0.112,0.397,0.505c-0.224,0.588-0.182,0.659,0.175,0.305c0.481-0.478,0.21-1.336-0.421-1.336
		C160.206,356.399,159.937,356.578,159.803,356.795 M265.832,357.192c0.216,0.216,1.018,0.496,1.781,0.625l1.387,0.23l-1-0.609
		C266.87,356.749,265.2,356.56,265.832,357.192 M161.6,357.496c0,0.737,0.739,0.981,1.497,0.495
		c0.567-0.364,0.577-0.413,0.052-0.252c-0.358,0.109-0.853-0.004-1.1-0.25C161.717,357.157,161.6,357.159,161.6,357.496
		 M263.7,363.088c-0.568,0.203-0.689,1.312-0.144,1.312c0.338,0,0.988-1.213,0.752-1.401
		C264.249,362.949,263.975,362.99,263.7,363.088 M171.041,366.235c-0.289,0.756,0.018,1.367,0.683,1.358
		c0.339-0.004,0.328-0.1-0.038-0.331c-0.283-0.181-0.398-0.627-0.257-0.994c0.141-0.367,0.167-0.668,0.057-0.668
		C171.376,365.601,171.176,365.886,171.041,366.235 M261.889,367.03c-0.851,1.137-0.857,1.615-0.022,1.443
		c0.416-0.086,0.512,0.043,0.297,0.399c-0.245,0.409-0.164,0.403,0.36-0.022c0.725-0.588,0.861-0.879,0.377-0.804
		c-0.779,0.123-1.325-0.083-1.115-0.422c0.127-0.207,0.604-0.304,1.059-0.217c0.725,0.14,0.762,0.073,0.305-0.524
		c-0.287-0.376-0.528-0.711-0.535-0.744C262.605,366.106,262.279,366.507,261.889,367.03 M171.403,368.396
		c-0.145,0.234,0.034,0.289,0.442,0.131c0.502-0.191,0.599-0.12,0.359,0.268c-0.233,0.377-0.175,0.436,0.202,0.202
		c0.385-0.238,0.46-0.146,0.275,0.338c-0.141,0.366-0.082,0.666,0.132,0.666c0.541,0,0.483-0.944-0.093-1.521
		C172.137,367.897,171.727,367.87,171.403,368.396 M175.7,369.487c-1.071,0.385-0.424,0.971,1,0.904
		c0.825-0.037,2.445-0.052,3.6-0.031l2.1,0.039v2.177c0,1.196,0.135,2.261,0.3,2.362c0.165,0.104,0.24-0.965,0.166-2.375
		L182.732,370l-1.466-0.062c-0.806-0.035-2.088-0.045-2.849-0.021c-0.76,0.022-1.57-0.104-1.8-0.284
		C176.388,369.454,175.975,369.388,175.7,369.487 M255.2,369.601c-0.804,0.256-0.843,0.322-0.2,0.332
		c0.439,0.006,1.16-0.144,1.6-0.332C257.619,369.162,256.568,369.162,255.2,369.601 M182.406,376.7
		c-0.003,0.715,0.174,1.3,0.394,1.3c0.508,0,0.508-1.214,0-2C182.506,375.545,182.411,375.714,182.406,376.7 M182.824,378.62
		c-0.013,0.23,0.192,0.636,0.456,0.9c0.373,0.373,0.351,0.48-0.1,0.485c-0.471,0.005-0.479,0.07-0.046,0.345
		c0.294,0.187,0.564,0.498,0.6,0.694c0.036,0.195,0.201,0.31,0.366,0.255s0.3,0.08,0.3,0.301c0,0.219,0.18,0.399,0.4,0.399
		c0.616,0,0.475-0.722-0.3-1.535c-0.385-0.403-0.914-1.079-1.176-1.5C183.061,378.544,182.836,378.39,182.824,378.62 M251.15,379
		c-0.027,0.11-0.075,0.335-0.106,0.5c-0.03,0.165-0.19,0.513-0.356,0.772s-0.113,0.588,0.115,0.729
		c0.229,0.142,0.367,0.019,0.307-0.272s0.146-0.475,0.459-0.406c0.49,0.105,0.49,0.027,0-0.575
		c-0.504-0.619-0.489-0.668,0.132-0.435c0.385,0.144,0.7,0.088,0.7-0.127C252.4,378.799,251.244,378.625,251.15,379 M187.6,381.849
		c0.33,0.105,1.087,0.991,1.682,1.967c0.595,0.977,1.9,2.352,2.9,3.057c1.087,0.766,1.818,1.593,1.818,2.054
		c0,0.644,0.101,0.688,0.604,0.271c0.537-0.445,0.53-0.557-0.06-0.987c-0.545-0.399-0.589-0.704-0.245-1.69
		c0.45-1.291,0.257-1.852-0.699-2.031c-0.33-0.062-1.05-0.623-1.6-1.247c-0.764-0.867-1.472-1.188-3-1.36
		C187.9,381.756,187.27,381.741,187.6,381.849 M192.643,382.845c1.432,1.495,2.186,1.523,1.797,0.066
		c-0.236-0.883-0.539-1.102-1.597-1.155l-1.306-0.065L192.643,382.845 M194.702,391.866c0.277,0.111,0.409,0.355,0.294,0.541
		c-0.115,0.186,0.002,0.468,0.259,0.627c0.293,0.181,0.361,0.115,0.183-0.172c-0.157-0.254-0.104-0.463,0.119-0.463
		c0.222,0,0.587,0.315,0.811,0.701c0.224,0.385,0.413,0.502,0.42,0.262c0.017-0.611-1.334-1.77-2.019-1.73
		C194.358,391.653,194.339,391.719,194.702,391.866 M213.7,393.888c0.604,0.09,1.595,0.09,2.2,0
		c0.604-0.093,0.109-0.168-1.101-0.168S213.096,393.795,213.7,393.888 M219.1,393.882c0.496,0.096,1.305,0.096,1.801,0
		c0.494-0.095,0.09-0.173-0.9-0.173S218.605,393.787,219.1,393.882"/>
	<path id="path3" fill="#E01600" d="M53.951,6.403c-0.932,0.545-0.897-5.675-0.91,158.997
		c-0.012,152.265,0.003,155.544,0.689,155.121c0.216-0.135,0.275-0.052,0.129,0.184c-0.145,0.234-0.128,0.504,0.039,0.596
		c0.166,0.094,0.077,0.114-0.198,0.047c-0.66-0.16-0.634,0.721,0.064,2.121c0.31,0.622,0.759,2.213,0.998,3.532
		c0.79,4.36,2.495,5.706,8.783,6.937c5.364,1.049,8.943,1.158,8.6,0.264c-0.294-0.766,0.789-0.803,1.416-0.047
		c0.382,0.459,6.513,0.578,36.825,0.709c20.002,0.087,36.512,0.304,36.69,0.482c0.178,0.178,0.282,1.426,0.231,2.771
		c-0.06,1.59,0.08,2.557,0.4,2.765c0.382,0.247,0.368,0.4-0.064,0.679c-0.635,0.408-0.426,3.817,0.277,4.521
		s4.112,0.912,4.521,0.276c0.278-0.432,0.431-0.445,0.678-0.063c0.208,0.319,1.175,0.46,2.765,0.399
		c3.133-0.118,3.06-0.233,2.981,4.707c-0.066,4.099-0.046,4.201,0.834,4.246c0.677,0.035,0.727,0.092,0.201,0.23
		c-1.499,0.393-0.513,2.523,1.167,2.523c0.695,0,0.848-0.164,0.653-0.699c-0.233-0.637-0.179-0.633,0.596,0.047
		c0.587,0.516,1.168,0.668,1.868,0.493c0.59-0.148,1.016-0.084,1.016,0.151c0,0.238,1.148,0.408,2.747,0.408h2.748l0.195,1.5
		c0.108,0.825,0.139,2.578,0.07,3.896c-0.093,1.761-0.015,2.238,0.295,1.8c0.331-0.47,0.358-0.427,0.126,0.204
		c-0.628,1.708-0.639,2.854-0.033,3.357c0.636,0.527,1.452,0.301,1.452-0.404c0-0.221-0.208-0.272-0.462-0.115
		c-0.307,0.189-0.352,0.107-0.134-0.244c0.246-0.398,0.137-0.458-0.438-0.238c-0.6,0.229-0.662,0.187-0.283-0.195
		c0.623-0.627,1.717,0.193,1.717,1.289c0,0.912,1.387,1.021,2.232,0.176c0.492-0.492,0.727-0.495,1.639-0.021
		c0.618,0.32,1.33,0.42,1.697,0.236c0.348-0.174,1.382-0.236,2.3-0.139l1.667,0.177l0.133,2.524
		c0.077,1.469-0.022,2.429-0.236,2.295c-0.215-0.133-0.235,0.088-0.049,0.537c0.599,1.436,0.715,2.565,0.264,2.565
		c-0.246,0-0.447,0.45-0.447,1c0,0.656,0.223,1,0.649,1c0.536,0,0.561-0.106,0.143-0.61c-0.278-0.334-0.404-0.711-0.278-0.836
		c0.125-0.125,0.515,0.328,0.867,1.01c0.352,0.68,0.795,1.236,0.985,1.236s0.47,0.665,0.622,1.479
		c0.718,3.826,3.146,6.768,6.597,7.994c1.571,0.558,2.013,0.926,2.294,1.91c0.239,0.838,0.638,1.26,1.279,1.352
		c0.994,0.142,1.045-0.733,0.061-1.061c-0.348-0.117-0.421,0-0.213,0.336c0.21,0.34,0.159,0.416-0.151,0.225
		c-0.257-0.159-0.374-0.441-0.259-0.627c0.115-0.186-0.017-0.43-0.294-0.541c-0.33-0.133-0.285-0.215,0.132-0.234
		c0.349-0.018,1.095,0.486,1.659,1.118l1.024,1.149l20.056-0.049c17.354-0.043,20.106-0.132,20.436-0.65
		c0.278-0.441,0.38-0.46,0.386-0.072c0.008,0.758,1.633,0.42,2.164-0.451c0.353-0.578,0.285-0.84-0.334-1.3
		c-0.759-0.563-0.757-0.577,0.101-0.577c0.852,0,0.876-0.121,0.81-4.201c-0.078-4.971-0.223-4.758,3.174-4.711
		c1.821,0.026,3.015-0.166,3.691-0.595c0.93-0.588,0.961-0.586,0.451,0.037c-0.701,0.856,2.16,0.989,3.303,0.153
		c0.955-0.698,1.434-5.39,0.605-5.924c-0.479-0.308-0.479-0.412,0-0.721c0.423-0.271,0.498-0.893,0.307-2.518l-0.254-2.159
		l1.414,0.165c2.298,0.268,8.859-0.355,9.624-0.914c0.532-0.389,0.735-1.194,0.823-3.266c0.065-1.51,0.016-2.522-0.11-2.248
		c-0.31,0.675-0.963,0.637-0.963-0.057c0-0.307,0.286-0.668,0.638-0.802c0.495-0.19,0.607-0.694,0.5-2.243
		c-0.076-1.099-0.02-1.998,0.125-1.998s0.215-0.314,0.157-0.699c-0.058-0.386-0.022-0.449,0.078-0.143
		c0.256,0.782,8.18,0.346,9.506-0.523c1.479-0.97,2.925-9.875,1.819-11.207c-0.616-0.742,0.045-1.283,2.401-1.963
		c4.146-1.197,7.121-4.484,7.304-8.07c0.039-0.764,0.229-1.391,0.422-1.393c0.592-0.003-0.116,3.278-1.183,5.477
		c-1.153,2.384-2.473,3.341-5.968,4.33c-3.667,1.039-3.718,1.529-0.133,1.274c5.959-0.421,7.607-1.911,8.311-7.518
		c0.2-1.597,0.598-3.03,0.893-3.218c0.291-0.184,14.232-0.338,30.98-0.342c26.575-0.005,30.515-0.082,30.949-0.605
		c0.548-0.66,1.6-0.812,1.6-0.233c0,0.201-0.225,0.457-0.5,0.568c-1.427,0.575,5.124,0.153,8.599-0.556
		c7.124-1.451,9.502-3.709,9.502-9.02c0-0.492,0.314-1.445,0.7-2.118c0.596-1.043,0.622-1.35,0.17-2.075
		c-0.291-0.468-0.337-0.731-0.104-0.586c0.301,0.186,0.426-45.283,0.426-154.98c0-123.487-0.102-155.186-0.496-154.963
		c-0.39,0.22-0.389,0.164,0.004-0.258c0.695-0.75,0.625-2.597-0.129-3.35c-0.748-0.749-3.22-0.84-3.507-0.129
		c-0.158,0.394-0.209,0.395-0.232,0.004C365.985,5.775,57.758,5.777,57.463,6.505c-0.157,0.39-0.207,0.389-0.231-0.005
		C57.194,5.911,54.909,5.844,53.951,6.403 M54.2,7.2c-0.136,0.22-0.072,0.4,0.143,0.4c0.215,0,0.481-0.225,0.592-0.5
		c0.146-0.361,0.211-0.367,0.233-0.024c0.041,0.617-0.653,1.042-1.175,0.72C53.613,7.561,53.807,6.8,54.247,6.8
		C54.357,6.8,54.336,6.98,54.2,7.2 M237.8,91.216c17.776,0.55,21.886,1.305,26.671,4.898c3.51,2.635,3.797,3.158,4.504,8.23
		c1.092,7.826,0.59,9.577-3.429,11.951c-1.233,0.728-3.125,4.718-4.206,8.87c-1.932,7.419-5.595,9.53-13.588,7.834
		c-10.779-2.288-28.268-3.014-33.152-1.375c-1.32,0.442-3.84,1.168-5.6,1.613c-4.885,1.233-5.115,2.48-1.2,6.52
		c1.043,1.076,2.337,2.966,2.873,4.2c1.455,3.346,1.392,3.268,4.089,4.973c2.062,1.304,3.127,1.678,5.987,2.103
		c8.804,1.309,11.438,2.483,13.688,6.102c1.531,2.466,4.713,4.244,9.07,5.07c6.336,1.202,10.794,3.374,13.163,6.412
		c1.19,1.527,7.527,7.834,10.46,10.41c4.691,4.122,6.26,11.986,6.255,31.372c-0.004,20.54-1.146,24.871-7.524,28.52
		c-1.573,0.901-1.78,1.19-3.699,5.198c-1.357,2.834-3.875,5.226-6.893,6.55c-3.816,1.675-4.07,1.839-4.898,3.179
		c-1.76,2.848-5.646,5.321-9.571,6.092c-14.512,2.85-64.295,2.334-72.542-0.752c-6.021-2.252-7.513-4.621-7.045-11.187
		c0.196-2.75,0.533-8.363,0.748-12.472c0.558-10.639,1.796-13.937,6.561-17.476c2.068-1.536,2.083-1.54,3.031-0.798
		c3.664,2.864,22.098,5.041,39.647,4.681l6.6-0.135l4.8-1.924c6.034-2.418,5.635-1.734,4.401-7.524
		c-0.58-2.724-1.126-5.315-1.212-5.76c-0.155-0.791-8.201-5.792-9.32-5.792c-1.799,0-6.623-3.462-8.057-5.781
		c-0.993-1.606-1.357-1.748-9.35-3.64c-9.282-2.197-12.678-4.07-14.567-8.03c-0.661-1.387-1.173-1.72-4.515-2.937
		c-4.417-1.61-7.477-4.286-9.024-7.89c-0.302-0.703-1.367-1.842-2.368-2.53c-5.147-3.541-6.992-10.941-6.986-28.015
		c0.006-18.127,2.062-25.195,8.27-28.442c0.968-0.507,1.659-1.476,2.892-4.059c1.894-3.968,4.144-6.21,7.49-7.462
		c2.93-1.096,3.879-1.771,5.114-3.637c3.149-4.758,9.09-6.439,25.231-7.139C221.325,90.773,223.416,90.772,237.8,91.216
		 M56.607,323.188c-0.948,1.535,2.968,6.305,6.439,7.846c1.125,0.5,2.161,1.236,2.301,1.637c0.229,0.655,0.203,0.663-0.252,0.081
		c-0.278-0.356-1.069-0.771-1.758-0.922c-3.811-0.837-9.914-9.03-6.726-9.03C56.741,322.8,56.739,322.976,56.607,323.188
		 M367.006,325.481c-0.943,2.522-3.986,5.51-6.28,6.162c-0.948,0.271-2.175,0.866-2.723,1.324l-0.997,0.832l0.797-0.951
		c0.438-0.523,1.57-1.285,2.516-1.695c3.431-1.479,7.519-6.487,6.615-8.104c-0.156-0.281-0.057-0.27,0.27,0.031
		C367.628,323.476,367.592,323.913,367.006,325.481 M59.373,324.349c0.615,1.189,4.442,4.852,5.07,4.852
		c0.69,0,0.336-0.475-2.043-2.738c-2.23-2.122-2.936-3.262-2.019-3.262c0.845,0,4.308,3.994,4.974,5.738
		c0.389,1.019,1.252,2.278,1.917,2.799c1.076,0.843,1.129,0.977,0.481,1.226c-0.401,0.154-0.601,0.151-0.444-0.005
		c0.334-0.334-0.426-1.357-1.007-1.357c-0.23,0-0.19,0.297,0.095,0.699c0.272,0.385-0.111,0.057-0.851-0.73
		c-0.74-0.785-1.886-1.754-2.546-2.151c-2.302-1.384-5-4.624-5-6.002C58,322.772,58.86,323.354,59.373,324.349 M363.6,323.626
		c0,0.234-1.17,1.58-2.6,2.989s-2.6,2.747-2.6,2.973c0,0.708,4.964-3.86,6.07-5.588c1.13-1.763,1.268-0.506,0.152,1.396
		c-1.021,1.742-4.284,4.573-5.296,4.595c-0.26,0.006-0.586,0.364-0.725,0.8c-0.347,1.094-2.126,2.415-2.868,2.129
		c-0.484-0.186-0.357-0.438,0.594-1.182c0.665-0.521,1.533-1.799,1.93-2.842C359.303,326.144,363.6,321.905,363.6,323.626
		 M64.828,329.399c0,0.221,0.258,0.851,0.572,1.4c0.314,0.551,0.572,0.82,0.572,0.6c0-0.219-0.258-0.85-0.572-1.399
		S64.828,329.181,64.828,329.399 M357.003,331.528c-1.013,1.188-1.061,1.33-0.309,0.929c0.812-0.435,1.952-1.983,1.638-2.229
		C358.26,330.171,357.661,330.756,357.003,331.528 M70.8,333.563c-0.33,0.187-1.05,0.459-1.6,0.604l-1,0.265l1-0.602
		c0.55-0.332,1.27-0.604,1.6-0.605C71.333,333.226,71.333,333.263,70.8,333.563 M354.4,333.831l1,0.602l-1-0.265
		c-1.452-0.384-2.403-0.944-1.601-0.942C353.13,333.228,353.85,333.499,354.4,333.831 M120.7,334.3
		c-8.305,0.061-21.895,0.061-30.2,0s-1.51-0.109,15.1-0.109S129.005,334.239,120.7,334.3 M337,334.293
		c-28.153,0.276-49.307,0.278-49.139,0.007c0.103-0.165,13.631-0.258,30.062-0.207C334.356,334.146,342.94,334.233,337,334.293
		 M285.006,335.954c-0.887,3.664-2.91,5.911-6.72,7.461c-2.731,1.111-2.673,0.341,0.069-0.917c3.152-1.446,6.408-5.467,5.924-7.317
		c-0.133-0.509-0.016-0.654,0.396-0.496C285.081,334.84,285.182,335.228,285.006,335.954 M279.482,336.638
		c-0.92,1.01-2.006,2.014-2.416,2.233c-0.408,0.219,0.22-0.601,1.396-1.82C281.042,334.374,281.833,334.054,279.482,336.638
		 M278.006,336.594c-0.742,0.767-1.439,1.306-1.549,1.196c-0.264-0.264,1.979-2.59,2.496-2.59
		C279.175,335.2,278.749,335.827,278.006,336.594 M283.997,335.5c-0.008,0.741-2.317,4.122-3.461,5.067
		c-1.785,1.474-4.136,2.433-4.136,1.687c0-0.306,0.529-0.776,1.176-1.044c1.49-0.617,4.223-3.359,4.845-4.861
		C282.841,335.334,284.005,334.707,283.997,335.5 M149.402,344.802c0.4,0.442,0.608,0.922,0.462,1.067
		c-0.145,0.146-0.264,0.065-0.264-0.179s-0.376-0.373-0.836-0.283c-0.671,0.129-0.745,0.052-0.378-0.391
		c0.356-0.429,0.298-0.591-0.265-0.736c-0.563-0.146-0.581-0.197-0.083-0.234C148.389,344.021,149.003,344.36,149.402,344.802
		 M275.936,347.996c0.125,0.854,0.082,0.879-0.5,0.297c-0.756-0.757-0.842-1.628-0.136-1.396
		C275.575,346.989,275.861,347.483,275.936,347.996 M275.364,351.2l0.256,1.4l-0.612-1.201l-0.613-1.199l0.211,1.101
		c0.543,2.847-3.416,6.496-6.082,5.607c-1.014-0.339-0.998-0.359,0.623-0.845c2.34-0.701,4.248-2.748,4.887-5.242
		C274.582,348.681,274.922,348.778,275.364,351.2 M273.669,352.96c-0.533,1.475-1.821,2.602-3.869,3.385l-1.2,0.461l1.2-0.222
		c2.112-0.388,4.964-3.292,4.525-4.608C274.246,351.737,273.951,352.181,273.669,352.96 M273.693,356.033
		c-0.719,0.642-1.528,1.166-1.799,1.166c-0.272-0.001,0.097-0.362,0.818-0.804c0.723-0.439,1.42-1.076,1.551-1.416
		c0.129-0.338,0.348-0.502,0.485-0.363C274.887,354.753,274.412,355.392,273.693,356.033 M161.022,356.835
		c0.147,0.239,0.057,0.645-0.201,0.9c-0.357,0.354-0.399,0.283-0.175-0.305c0.235-0.617,0.157-0.718-0.397-0.505
		c-0.411,0.158-0.592,0.105-0.446-0.131C160.125,356.274,160.687,356.293,161.022,356.835 M268,357.438l1,0.609l-1.387-0.23
		c-1.579-0.264-2.637-1.025-1.393-1.004C266.648,356.821,267.45,357.103,268,357.438 M263.148,366.884
		c0.457,0.598,0.42,0.664-0.305,0.524c-0.455-0.087-0.932,0.01-1.059,0.217c-0.21,0.339,0.336,0.545,1.115,0.422
		c0.484-0.075,0.348,0.216-0.377,0.804c-0.524,0.426-0.605,0.432-0.36,0.022c0.215-0.356,0.119-0.485-0.297-0.399
		c-0.835,0.172-0.828-0.307,0.022-1.443c0.391-0.523,0.717-0.924,0.725-0.891C262.62,366.173,262.861,366.508,263.148,366.884
		 M256.6,369.601c-0.439,0.188-1.16,0.338-1.6,0.332c-0.643-0.01-0.604-0.076,0.2-0.332
		C256.568,369.162,257.619,369.162,256.6,369.601 M252.4,379.187c0,0.215-0.315,0.271-0.7,0.127
		c-0.621-0.233-0.636-0.185-0.132,0.435c0.49,0.603,0.49,0.681,0,0.575c-0.313-0.068-0.52,0.115-0.459,0.406
		s-0.077,0.414-0.307,0.272c-0.229-0.142-0.281-0.47-0.115-0.729s0.326-0.607,0.356-0.772c0.031-0.165,0.079-0.39,0.106-0.5
		C251.244,378.625,252.4,378.799,252.4,379.187 M182.8,381.013c0,0.645,1.065,1.256,1.474,0.846
		c0.285-0.284-0.619-1.459-1.123-1.459C182.958,380.399,182.8,380.676,182.8,381.013 M192,383.24c0.55,0.624,1.27,1.185,1.6,1.247
		c0.956,0.18,1.149,0.74,0.699,2.031c-0.344,0.986-0.3,1.291,0.245,1.69c0.59,0.431,0.597,0.542,0.06,0.987
		c-0.503,0.418-0.604,0.373-0.604-0.271c0-0.461-0.731-1.288-1.818-2.054c-1-0.705-2.305-2.08-2.9-3.057
		c-0.595-0.976-1.352-1.861-1.682-1.967c-0.33-0.107,0.3-0.093,1.4,0.031C190.528,382.052,191.236,382.373,192,383.24
		 M194.44,382.911c0.389,1.457-0.365,1.429-1.797-0.066l-1.106-1.154l1.306,0.065C193.901,381.81,194.204,382.028,194.44,382.911"/>
	<path id="path4" fill="#FFFFFF" d="M210.6,91.238c-16.142,0.7-22.083,2.381-25.231,7.139c-1.235,1.866-2.184,2.541-5.114,3.637
		c-3.346,1.252-5.596,3.494-7.49,7.462c-1.233,2.583-1.924,3.552-2.892,4.059c-6.208,3.247-8.264,10.315-8.27,28.442
		c-0.006,17.074,1.839,24.474,6.986,28.015c1.001,0.688,2.066,1.827,2.368,2.53c1.547,3.604,4.607,6.28,9.024,7.89
		c3.342,1.217,3.854,1.55,4.515,2.937c1.889,3.96,5.285,5.833,14.567,8.03c7.993,1.892,8.357,2.034,9.35,3.64
		c1.434,2.319,6.258,5.781,8.057,5.781c1.119,0,9.165,5.001,9.32,5.792c0.086,0.445,0.632,3.036,1.212,5.76
		c1.233,5.79,1.633,5.106-4.401,7.524l-4.8,1.924l-6.6,0.135c-17.549,0.36-35.983-1.817-39.647-4.681
		c-0.948-0.742-0.963-0.738-3.031,0.798c-4.765,3.539-6.003,6.837-6.561,17.476c-0.215,4.109-0.552,9.722-0.748,12.472
		c-0.468,6.565,1.024,8.935,7.045,11.187c8.247,3.086,58.03,3.602,72.542,0.752c3.925-0.771,7.812-3.244,9.571-6.092
		c0.828-1.34,1.082-1.504,4.898-3.179c3.018-1.324,5.535-3.716,6.893-6.55c1.919-4.008,2.126-4.297,3.699-5.198
		c6.378-3.649,7.521-7.98,7.524-28.52c0.005-19.386-1.563-27.25-6.255-31.372c-2.933-2.576-9.27-8.883-10.46-10.41
		c-2.369-3.038-6.827-5.21-13.163-6.412c-4.357-0.826-7.539-2.604-9.07-5.07c-2.25-3.619-4.885-4.793-13.688-6.102
		c-2.86-0.425-3.925-0.799-5.987-2.103c-2.697-1.705-2.634-1.627-4.089-4.973c-0.536-1.234-1.83-3.124-2.873-4.2
		c-3.915-4.039-3.685-5.287,1.2-6.52c1.76-0.445,4.279-1.171,5.6-1.613c4.885-1.639,22.373-0.913,33.152,1.375
		c7.993,1.696,11.656-0.415,13.588-7.834c1.081-4.152,2.973-8.142,4.206-8.87c4.019-2.374,4.521-4.125,3.429-11.951
		c-0.707-5.073-0.994-5.596-4.504-8.23c-4.785-3.593-8.895-4.348-26.671-4.898C223.416,90.772,221.325,90.773,210.6,91.238
		 M236.4,97.381c6.065,0.488,12.271,1.283,16.111,2.062c1.328,0.27,2.372,2.149,4.266,7.682c1.513,4.417,1.504,4.263,0.49,8.075
		c-0.438,1.65-1.002,4.262-1.252,5.805c-0.634,3.9-2.33,5.988-4.416,5.436c-0.77-0.204-3.92-0.955-7-1.667
		c-3.091-0.716-6.674-1.831-7.998-2.49c-4.826-2.404-6.184-2.684-13.004-2.684h-6.277l-1.76,1.239
		c-0.969,0.682-2.041,1.559-2.384,1.949c-0.342,0.39-2.321,1.386-4.399,2.213c-10.874,4.326-12.322,7.356-9.342,19.536
		c1.31,5.355,7.245,10.102,16.365,13.088c1.638,0.537,3.418,1.464,4.288,2.234c1.617,1.432,5.061,3.286,7.912,4.262
		c0.99,0.339,2.812,1.083,4.052,1.655c1.238,0.571,3.938,1.406,6,1.854c4.415,0.962,6.591,2.121,8.122,4.332
		c1.276,1.842,2.844,3.124,5.426,4.439c3.207,1.634,6.254,4.952,7.225,7.871c0.958,2.879,2.973,6.118,4.951,7.961
		c5.094,4.746,4.901,32.809-0.254,37.055c-3.848,3.169-4.557,3.875-5.739,5.718c-0.707,1.104-1.591,2.904-1.96,4
		c-0.911,2.694-2.303,4.044-4.967,4.819c-2.424,0.703-6.383,2.591-8.235,3.926c-0.647,0.467-2.448,1.497-4,2.29
		c-1.552,0.792-3.72,1.903-4.82,2.471c-9.323,4.806-49.093,4.433-57-0.534c-0.99-0.623-2.855-1.613-4.144-2.203
		c-2.495-1.143-3.555-2.737-4.723-7.112c-0.5-1.87,0.864-11.923,1.886-13.899c1.215-2.349,20.594-1.632,23.625,0.874
		c1.846,1.528,11.297,3.705,14.756,3.399c7.257-0.641,9.437-1.123,11.499-2.542c1.096-0.753,3.828-2.051,6.072-2.884
		c9.726-3.607,11.377-5.99,10.992-15.852c-0.351-8.985-0.867-9.809-9.125-14.542c-2.729-1.565-6.011-3.815-7.291-5.001
		c-2.972-2.75-6.269-4.36-11.548-5.637c-9.23-2.234-13.877-4.055-15.181-5.951c-2.259-3.282-6.016-5.773-9.727-6.446
		c-2.349-0.426-5.159-3.187-6.019-5.915c-0.903-2.864-2.889-5.73-5.108-7.371c-0.971-0.718-1.972-1.473-2.225-1.678
		c-4.186-3.398-3.272-32.112,1.134-35.617c4.683-3.726,6.533-6.065,7.784-9.844c0.927-2.798,2.196-3.973,5.314-4.92
		c2.807-0.853,6.878-2.843,8.228-4.023c0.44-0.385,1.715-1.187,2.834-1.784c1.118-0.596,2.528-1.543,3.133-2.103
		C202.547,97.606,219.389,96.011,236.4,97.381"/>
</g>
</svg>
